<?xml version="1.0" encoding="UTF-8"?>
<svg id="Layer_1" xmlns="http://www.w3.org/2000/svg" version="1.1" viewBox="0 0 560.4 76.3">
  <!-- Generator: Adobe Illustrator 29.5.1, SVG Export Plug-In . SVG Version: 2.1.0 Build 141)  -->
  <defs>
    <style>
      .st0, .st1 {
        stroke-width: .2px;
      }

      .st0, .st1, .st2, .st3 {
        fill: none;
        stroke: #000;
      }

      .st1 {
        stroke-miterlimit: 5;
      }

      .st4 {
        isolation: isolate;
      }

      .st2 {
        stroke-width: .7px;
      }

      .st5 {
        fill-rule: evenodd;
      }

      .st3 {
        stroke-width: .3px;
      }
    </style>
  </defs>
  <path d="M1.3,73.1h0s-.1,0,0,0c0,0,.2.2.4.3h-.2.3c.6.2,1.4.2,2,0h4.8c2.4,0,4.8,0,7,.3,0,0,0-.3.2-.3h.9c.9.2,2,.5,2.9.3,0,0-.2,0-.2-.2.3,0,.5,0,.8-.2,1,0,1.9.4,2.9.4s1,0,1.4,0h1.6c.1,0,.2-.2.3-.2h.6c1.3,0,2.7,0,3.9.2,2.3,0,4.6.2,6.7,0,.8,0,1.5,0,2.2,0,1.4,0,2.8.5,4.1.6h0c0-.2-.3-.4-.4-.5,2.2.4,4.1.4,6.3.7.7,0,1.7.2,2.6.3v1.2h-6.2c-3.4,0-6.6.2-10.3,0-2.3,0-4.4,0-6.6-.3-3.2-.2-6.6-.4-9.9-.5-6.4-.2-13.2-.5-18.9-1.5,0,0-.3-.2-.3-.4s.2-.3.3-.4c.3,0,.6-.3.9-.4v.5h0Z"/>
  <g>
    <path d="M38.6,69.8c-.3-.3-.7-.5-1.1-.7,1.3,0,2.6,0,4,0h2.9c.9.8,3.1,2.2,7.6,4.5,0,0-.9,0-1.4-.2-3.8-.6-7-1.7-10-3.1-.5-.2-1-.5-1.7-.5,0,0-.2-.2-.4-.3"/>
    <path d="M103.1,73.1h0s0,0,0,0c0,0-.2.2-.4.3h.2-.3c-.6.2-1.4.2-2,0h-4.8c-2.4,0-4.8,0-7,.3,0,0,0-.3-.2-.3h-.9c-.9.2-2,.5-2.9.3,0,0,.2,0,.2-.2-.3,0-.5,0-.8-.2-1,0-1.9.4-2.9.4s-1,0-1.4,0h-1.6c0,0-.2-.2-.3-.2h-.6c-1.3,0-2.7,0-3.9.2-2.3,0-4.6.2-6.7,0-.8,0-1.5,0-2.2,0-1.4,0-2.8.5-4.1.6h0c0-.2.3-.4.4-.5-2.2.4-4.1.4-6.3.7-.7,0-1.7.2-2.6.3-.2.6-.2,1.1,0,1.2h6.2c3.4,0,6.6.2,10.3,0,2.3,0,4.4,0,6.6-.3,3.2-.2,6.6-.4,9.9-.5,6.4-.2,13.2-.5,18.9-1.5,0,0,.3-.2.3-.4s-.2-.3-.3-.4c-.3,0-.6-.3-.9-.4v.5h.1Z"/>
  </g>
  <g>
    <path d="M65.8,69.8c.3-.3.7-.5,1.1-.7-1.3,0-2.6,0-4,0h-2.9c-.9.8-3.1,2.2-7.6,4.5,0,0,.9,0,1.4-.2,3.8-.6,7-1.7,10-3.1.5-.2,1-.5,1.7-.5,0,0,.2-.2.4-.3"/>
    <path class="st5" d="M45.5,34.2s0,0,0,0,0,0,0,0,0,0,0,0,0,0,0,0"/>
    <path class="st5" d="M66.4,50.2v-.2s-.2.3-.3.3c-.3.4-.6.7-1,.9h0v-1.1s-.2.2-.2.3c0,0-.2,0-.3.2,0,0-.2.2-.3,0v-1c0,0,0-.3-.2-.4h-.2v.2c0,.2-.3.5-.4.6,0,0,0-.2,0-.3,0-.7-.3-1-.6-1.3,0-.2,0,0,0,0,0,.3-.2.7-.4.9,0,0,0,0,0,0v-.8l-.2-.3v.4c0,0,0-.2,0-.2,0-.5-.3-.8-.6-1.2,0,0-.3-.4-.4-.3v.5s0,.3,0,.2c0,0-.2-.2-.3-.2h-.3s0-.3,0-.4c0-.4,0-.9-.4-1.2l-.3-.3s0,.2,0,.3c0,.2,0,.4-.2.6,0,0,0,.2-.2.2v-.4c0-.6-.6-1.1-1.2-1.2h-.2s0,.2,0,.3c0,.3,0,.8-.3.9,0,0-.2,0-.3,0v-.2c-.2-.3-.7-.7-1.2-.7h-.2s.2,0,.2,0c.2.3-.2.7-.3.8-.3.2-.8.4-1.2.5-1.3.4-2.4.9-3.2,1.8-.8.8-1.6,1.8-2.2,2.8-.4.7-.9,1.6-2,1.3-.7-.2-1.2-.8-1.2-1.6s.2-1.5.4-2.1c.5-1.7,1-3.3,1.5-4.8s.9-3.8,1.1-4.9c.9-4.2,0-5.9-.6-6.6-.3-.3-.7-.7-1.2-.7-1.2,0-1.8.6-2.2,1.4,0,0-.2.3,0,.3,0,0,.2,0,.3.2.2.2,0,.4,0,.7,0,0,0,.4.2.4,0,0,0-.2-.2-.2,0-.2,0-.5,0-.7,0,0-.2-.3-.3-.3,0,0,0,.2,0,.2-.2.3-.5.6-.8.7-.4.3-.9.5-1,1.1v.4s0,0,.3,0c0,0,.2,0,.3,0,.5-.2.9-.4,1.4-.6.2,0,.5-.3.9-.3s.5,0,.8,0c.2,0,.5-.3.6-.3.3,0,.4.3.5.5v1.8c0,.3,0,.7-.2,1-.8,3.8-1.9,7-3.4,9.9-.6,1.2-1.4,2.5-1.6,4.2v2c1,0,2.1.3,3.4.7.4,0,.8.2,1.1.2,1.7,0,3.2-1.2,5.5-1.2h0c2.4,0,3.9,1.2,5.5,1.2s.7,0,1.2-.2c1.1-.4,2.1-.6,3-.7,0,0-.2,0-.3,0-.2,0-.4,0-.6,0h-.8c0,0,.3-.2.4-.2s.3-.2.4-.3c.4,0,1.3,0,1.5.2,0,0,0,.2.2.2h.3c.5,0,1,0,1.4,0h0c.2,0,.4-.3.6-.5s.4-.5.6-.7c.2-.3.3-.6.4-.9,0-.2.2-.4.3-.6,0-.2.2-.4.2-.7v-1.3M43.3,36.7s-.2-.3-.3-.4h0s.3-.2.4-.3c0,0,.4.3.4.4l-.4.3M45.5,34.5c-.5,0-.7-.6-.2-.7.5,0,.6.6.2.7M61.3,49.9h.2v.4h-.2c-.2,0-.5.1-.6.2h-.2c0,0,0-.2.2-.2,0-.2.3-.4.6-.4M60.7,49.2c0-.2.3-.4.4-.6,0,.3,0,.9-.4.9h-.2l.2-.3M60.6,49.8l-.4.4s0,.3-.2.3h-.3l.2-.2s0-.2.2-.2.4-.3.5-.3M59.9,51.7v-.3c0,0-.3-.2-.4-.2,0,0-.3,0-.2,0h.2c.2,0,.4,0,.5,0,.2,0,0,.4,0,.5M59.7,49c.2,0,.4-.4.5-.6h0c0,.2,0,.3-.2.5,0,0-.2.4-.3.4,0,0,0,0,0-.2l.2-.2M59.1,47.8c0,0,.3-.2.3-.3h0c0,0,0,.4-.2.5,0,0-.3.3-.3.3l-.2-.2s.3-.2.4-.3M58.6,51.3s-.2-.2-.3,0h0v-.2c0-.2.7,0,.8.2.2.2-.2.4-.3.6h0c0,0,.2-.3,0-.4M58.5,49.3s-.2,0,0,0h.4c.3.2,0,1,0,1.1v-.3c0-.3,0-.7-.2-.8M58.8,48.8s.2.4,0,.2-.5-.3-.7-.2h-.3c0,0,.3,0,.4-.2.3,0,.4,0,.6.2M57.6,50.5h0c0-.4,0-.7-.4-.7h0v-.2s.2,0,0,0c.5,0,.6.4.4.8h0M57.7,49.1c-.2,0-.5-.3-.8-.4h.6c0,0,.4.3.4.4v.2l-.2-.2M56.4,49.1c-.2,0-.4,0-.6-.2,0,0,0,0,0,0,.4,0,.7,0,.9.4v.3c0,0,0,0,0,0,0,0-.3-.2-.4-.3M56.7,50.3c0,0,0,.4,0,.2,0-.2-.2-.3-.4-.3h-.4s0,0,0-.2c0,0,.4,0,.6,0,.3,0,.4,0,.4.4M57.8,47.4c.2-.2.3-.5.4-.8v-.2s0,.5,0,.6c0,.2-.2.6-.4.6h-.3l.2-.2M57.6,48.2c-.3,0-.5.2-.8.3-.4,0-.6.2-1.1.2.5-.3,1.2-.4,2-.4M56.1,47v-.4h0c0,0,.2.1.2.2v.4h-.3s0-.2,0-.2M54.9,47.8c.6-.3,1.6-.4,2.4-.2-.2,0-.5.2-.9.2h0c-.3,0-.5,0-.7,0h-.7s.4-.2,0,0M53.7,48.2s.3-.3.4-.3c.2,0-.3.3,0,.3,0,0,.4,0,.6,0h-.8c-.2,0-.4,0-.2-.2M52.2,48.9l.5-.5s-.2.2-.2.3.5,0,.6,0h.2,0c0,0-.5.3-.7.3h-.4v-.2M51.1,49.7s0-.2,0-.3l.3-.3s-.4.6,0,.5c0,0,.5-.2.7-.3,0,0,.3,0,.2,0-.3.2-.6.4-1,.5h-.3v-.3M50.3,50.7c0-.3.3-.5.4-.7s0,.2,0,.3c0,0-.2.4,0,.4,0,0,.5-.2.6-.3.2,0,.4-.2.6-.3-.3.3-.6.5-1.1.7,0,0-.4.2-.5,0v-.2M49.6,51.6c0-.3.2-.4.3-.6,0,0,0,.5,0,.6h.3c.2,0,.5-.2.7-.3s0,.2-.2.2c-.3.2-.5.3-.8.5,0,0-.2,0-.2,0v-.3M49.4,52.5l-.3.2c0,0,0-.5,0-.5,0,0,0,.2,0,.2s.3-.2.5-.3c0,0,.3-.2.4-.2l-.3.4s-.2,0-.3.2M50.9,53.6h-.2v-.3c0-.2-.6-.2-.9,0,.2-.2.8-.4,1,0,0,0,0,.3,0,.4M51.3,52.7h0c-.3-.4-.8,0-1,.1,0,0-.2,0-.2,0,.2-.6.5-1.2,1-1.5,0,0,.3,0,.4,0,0,0,.2-.3.2-.4,0-.2.3-.4.6-.5q0,0,.2,0c.2-.3.5-.6.8-.7h.5l.3-.3c.2,0,.5-.3.8-.3s.7,0,.9.2c0,0,.3.2.2.3,0,0-.3-.2-.4-.2-.3,0-.8,0-1.1,0s-.3,0-.3.2c0,0,.4.4.3.4,0,0-.4,0-.5,0-.3,0-.7,0-.9.2l-.3.2.4.2h0-.4c-.3,0-.8.2-1,.4,0,0-.2.2,0,.2h0s.2,0,.3.2v.2h-.2c-.5,0-.9.2-1.2.4,0,0-.5.4-.3.4h.3c0,0,.3,0,.4.2v.3M54.9,50.3c-.2,0-.3.2-.5,0h0s.3-.2.4-.3h.2c.5,0,.9.3.7.7,0,0,0,.2,0,.2v-.2c0-.3-.2-.5-.6-.5M53.9,50.7c-.3,0-.3.2-.6.2s-.2,0,0,0c.2-.2.3-.3.7-.4.5,0,.8.3.6.7v.2h0c0-.4-.2-.6-.5-.6M53.5,51.8h0c0,0,0-.3-.3-.4h-.5s-.3,0-.3-.2c0,0,.3,0,.4,0,.4,0,.9.2.7.7M51.4,52.1s.4,0,.5,0c.2,0,.5,0,.6.2,0,0,0,.3,0,.2s-.3-.2-.6-.2-.2,0-.3,0h0M52.7,53.5s-.3,0-.4,0c-.2,0-.6,0-.8.2,0,0,0-.2.2-.2s.2,0,.4-.2c.3,0,.5,0,.6.2h0M53.7,52.9s-.2-.2-.3-.2c-.4,0-.7.3-.9.3h-.2s0-.2.2-.2c.2-.2.6-.3.9-.3s.4,0,.4.3c0,0,0,.2,0,.2M54.8,52.2c0,0,0,0,0,0,0-.3-.4-.3-.6-.2,0,0-.3.2-.4.2h-.2c.2-.2.5-.4.9-.4s.5.2.3.6M55.8,52v-.2c0,0-.2-.2-.4-.2h-.3s-.2,0-.2-.2h.4c.3,0,.6,0,.5.4v.2M56.6,51.9v-.3c0,0-.3-.2-.4-.2h-.2s-.2,0-.2,0c0,0,.2,0,.3,0,.7,0,.9.4.5.8M56.8,51.1s.2,0,.3,0h.2c.3,0,.6,0,.6.2s0,.2,0,.3c0,0,0,0,0,0v-.2c0-.3-.5,0-.7-.2h0M62.6,52.8s-.3.2-.4.3h-.9c-.2,0,0,0,0,0h.6l-.2.2h-1c-.3,0,0,0,.2.2,0,0,.5,0,.4,0-.2,0-.4.2-.6,0h-1.1c-.2,0-.3.2-.4.3-.3.2-.8.2-1.2,0-.2,0-.5-.2-.8-.2.5,0,.8-.4,1.2-.6.3,0,.6-.3.9-.3h.3c.3-.3.8-.5,1.2-.5h1.5M62.3,52c-.3.2-.5.2-.8.3,0,0-.4,0-.5,0l.2-.2c.2-.2.4-.6.6-.8,0,0,.2,0,0-.2h-.4c-.4,0-.7.2-1,.4h0c0,0,.5-.4.7-.4h.3c.2,0,.5,0,.7,0h0c0,.3-.2.5-.4.7l-.2.2h.3c.3,0,.5-.2.8-.3l-.3.2M62.7,50.2c0,0-.2.4-.3.5h-.2l.2-.3c.2-.2.2-.4.4-.5h0v.4M64.4,51.5c0,0,0,.4-.3.5l-.5.5h0c.3-.3.5-.9.9-1.2v.3M65.7,51.5c0,.2-.4.5-.6.7,0,0,0,0,0,0,0,0,.2-.4.3-.5v-.2l.3-.2v.3M62.7,55.2h-.4c-.9,0-2,.4-3.2.8-.4.2-.9.2-1.3.2-1.8,0-3.3-1.2-5.5-1.2h0c-2.2,0-3.7,1.2-5.5,1.2s-.8,0-1.3-.2c-1.2-.4-2.3-.6-3.2-.7,0,0,0,.2,0,.4,0,.2.2.2.4.2.6,0,1.2.3,1.7.5.6.2,1.2.2,1.8.2h1.3c.4,0,.7,0,1,0,.3,0,.5-.2.8-.2.5,0,1.1-.3,1.6-.4.6-.2,1.2-.2,1.8-.3h1c.5,0,1.1.2,1.6.3.2,0,.5.2.7.2.8.2,1.8.4,2.7.3,1.1,0,2.1-.3,3-.6.5-.2,1-.3,1.5-.4h-.7"/>
    <path d="M37.2,56.6c1.1-.7,3.1-2.4,8.3-.6.5.2,1.4.3,2.6,0,2.2-.7,3.7-1.4,6.5-.5,2.9,1,3.1,1,5.4.2.3,0,4.1-1.2,7.1.9,0,0-1.2,2.7-1.3,2.8,0,0-2.1-1.9-7-.3-1.1.3-1.6.4-3.6-.2-1.4-.5-2.7-1-5.3-.3-.8.2-2.7,1.2-4.4.5-.5-.2-2.3-.7-4.5-.5-1.4,0-2.4.9-2.5.9l-.8-1.6c0-.2-.5-1.2-.5-1.2"/>
    <path d="M40.2,62.1c0,0,1.6-1.1,5.7,0,.2,0,1.2.8,3.3,0,1.7-.7,3.1-1.1,5.5-.3.6.2,2.3,1,3.9.3,1.5-.7,4.3-.9,5.8-.2,0,0-3.8,6.4-12.1,11.3,0,0-7.4-4.3-11.5-10.3,0-.2-.6-.9-.6-.9"/>
    <path class="st2" d="M69.9,36.6v4.8c0,20.1-11.7,28.1-17.7,31.9-6-3.8-17.7-11.8-17.7-31.9v-5"/>
    <path d="M69.5,35.1v-.7h.7v.4h-.2s-.5.3-.5.2"/>
    <polyline class="st2" points="34.5 33.6 34.5 29.2 34.5 28.8 52.2 28.8 69.9 28.8 69.9 29.2 69.9 33.4"/>
    <path d="M34.3,34.8v-.3c0,0,0-.2,0-.2h.7v.7s-.3-.2-.4-.2h-.3,0Z"/>
    <path class="st1" d="M65.8,59.4c-1-.6-3.2-1.6-7.3-.3-2.2.7-3.7-.9-6.4-.9s-4.2,1.7-6.4.9c-4.1-1.4-6.3-.3-7.3.3M64.3,62c-1-.4-3-.8-6.2.3-2,.7-3.4-.9-5.8-.9s-3.7,1.6-5.8.9c-3.3-1.1-5.3-.7-6.3-.3"/>
    <path class="st5" d="M27.8,25.9h0"/>
    <path d="M20.4,13.6h0q0-.1,0,0h0"/>
    <path d="M25.9,16.6h0"/>
    <path d="M25.6,30.4h0"/>
    <path d="M30.5,35.1h-.1c-.1,0,0,0,0,0h.1"/>
    <path d="M33.4,34.6h0"/>
    <path d="M33.4,33.9h0"/>
    <path d="M32.8,33.5h0"/>
    <path d="M27.3,31.2h0"/>
    <path d="M30.1,69.3h0"/>
    <path d="M33.7,69.5h0Z"/>
    <path d="M33.6,69.1h0"/>
    <path d="M27.6,57.8h0"/>
    <path d="M27.7,48h0c0,0,0,0,0,0Z"/>
    <path d="M25.4,70.9h0"/>
    <path d="M20.3,55.4h0"/>
    <path d="M9.9,73h0"/>
    <path d="M9.8,73h0"/>
    <path class="st5" d="M39.1,20.9c-.4-.3-1.2,0-1.6,0-2.8.8-5.5,2-7.6,3.6-.5.4-1,1.1-1.1,1.7v.5c-.1-.3-.2-.5-.3-.7-.2-.3-.3-.5-.4-.6-.3-.4-.7-.7-1.1-1.1-.3-.4-.4-.8-.6-1.2-.2-.4-.5-.9-.5-1.5v-.5h.8c.2,0,.3-.2.4-.2h.3c.7,0,1-.7,1-1.2v-.8c0-.2-.3-.3-.5-.4-.4-.2-.7-.9-1.1-1.2-.1-.1-.4-.3-.2-.5,0,0,.4,0,.3-.2h-.3v-.2c0-.2-.3-.5-.5-.6h-.3l-.3-.3v-.9c.1-.7.5-1.5.4-2.3,0-.4-.4-1.1-.7-1.3h-.3c-.1.3-.2.5-.3.7-.4,1.1-.6,2.2-1.5,2.8,0,0-.4.3-.4.2v-.2c-.1-.5-.1-.9-.3-1.4-.2-.7-.9-1.2-1.3-1.7,0,0,0-.2-.2-.2-.2-.1-.5.2-.6.3-.2.5-.4,1.5-.3,2.2,0,.7.2,1.2.4,1.6,0,.1.4.5.4.6v.2c-.2.7,0,1.6,0,2.4s.1.8.2,1.3c.1.4.3.8.3,1.2v.6c0,.7.2,1.2.2,1.8s0,1.2-.1,1.7c-.1,1.1-.5,2.2-.5,3.4s0,1.8.1,2.6c0,.4.1.8,0,1.2,0,.6-.3,1.3-.5,1.9-.5,1.3-.8,2.5-1.2,3.7-.2.6-.5,1.2-.7,1.8-.4,1.1-.7,2.5-1.2,3.6-.5,1.2-.9,2.3-1.1,3.6,0,.4-.2.8-.2,1.1,0,.5-.1,1-.2,1.5v3c0,.5.2,1.1.2,1.7.1,1.6.2,3.3.2,4.6v6c0,.5-.1,1-.2,1.5-.2.9-.3,1.8-.7,2.5-1,1.8-3.5,2.2-5.8,2.6h-1.1c-1.2,0-2.3,0-3.5.2-.9,0-1.9.3-2.9.5-.3,0-.8,0-.8.3s.6.6.9.6c.4,0,.8,0,1.3,0,1.4,0,2.7,0,3.9,0,2.5,0,5.4,0,7.5-.7.2,0,.5-.3.7-.3h.7c1.4,0,2.7,0,4.1-.2h.4c.2,0,.3.2.4.3,0,0,.3,0,.5,0,.8,0,1.6,0,2.5,0,1.4,0,2.7,0,4.2.2,1.2,0,2.1,0,3.3.2.3,0,.6,0,.9.2h1.7s.2,0,.2,0h.6s.2,0,.3,0c.2,0-.2-.4-.3-.5,0,0-.3,0,0,0,0,0,.2,0,.3,0,.2,0,.8,0,.8,0l-.3-.3c-.2,0-.6,0-.7-.2-.2,0,0,0,.2,0h.6l-.5-.3h-.2s0,0-.2,0c-.3,0-.7-.4-1.1-.5h-1.4c-.4,0-.6-.2-1-.2s-1.1,0-1.5,0h-.6c-.5,0-1.1,0-1.6-.2-.7,0-1.3,0-1.8-.2,0,0-.6-.2-.7-.3h.9c.5,0,1.1,0,1.6,0h1.6c1.2,0,2.7.3,4,.3h.8c0,0,.2,0,.3,0,.5,0,1.3.3,1.7.2.2,0,.4-.2.6-.2s.5,0,.6,0l-.3-.3c-.3,0,0,0,.3,0h.2c.2,0,.8,0,.8,0h0c0,0-.4-.3-.6-.4h-.2v-.2s.2,0,.3,0c0,0,0-.2-.2-.2-.3,0-.4-.2-.7-.3-.3,0-.7-.3-1-.3h-1.7c-.6,0-1.3-.2-1.8-.2-1.6,0-3.3-.4-4.5-1-.6-.3-.6-1.3-.5-2,.2-1,.3-2.2.4-3.2,0-.4,0-.8.1-1.1,0-.2.1-.7.2-1,0-.3.1-.6.2-.9.2-1.3.2-2.7.6-3.8.2-.5.5-1,.7-1.6,0,0,0-.2.1-.3v-.3c.1-.4.2-.7.3-1,0-.3.1-.6.2-1,.1-1.5.2-3.2-.2-4.5-.2-.7-.4-1.6-.8-2.3,0-.2-.3-.3-.3-.4v-.7c.2-2.2,0-4.3.4-6.5,0,0,0-1,.2-1.1h1.7c.7,0,1.5,0,2,.3.3,0,.5.5.8.7.3,0,.3.2.4.3.4.4,1.1.5,1.4,0,0-.4,0-.6,0-.9v-.2c0-.3-.6-.5-.7-.7v-.2h.2c.3,0,.4.2.5.5,0,0,0,.3,0,.3l.2-.2v-.9c0-.2,0-.4-.2-.5,0,0-.3,0-.4-.2,0,0,0-.3-.2-.4,0,0-.3-.2-.5-.2h-.3c0-.2-.3-.3-.4-.3h-.2s-.2-.4-.3-.5c0-.2-.2-.4-.3-.5,0,0-.2-.1,0-.2l.3-.2c0,0,.3-.2.4-.2s1-.4,1-.6-.6,0-.7.1c-.4.1-.5.2-.8.4,0,0-.3.2-.4.2,0,0,0-.2,0-.3s0-.2,0-.3c0,0-.2-.5-.2-.6h.3c.4-.1.8-.3,1.1-.5l.3-.4v.2c.4.3.8,0,1-.2l.3-.3.2.2h.2s0,.3,0,.4c0,.1.5-.3.5-.4v-.2l.3.3c0,.1-.2.3,0,.4,0,0,.3-.1.4-.2,0,0,.3-.4.3-.3v.3c0,.1-.2.2-.2.3,0,.1.6-.2.7-.3.4-.2.9-.5.9-1s0-.4-.2-.4h-.4v-.3c0-.3-.2-.5-.5-.5,0,0,0,.1-.2.1,0,0-.2-.3-.2-.4-.3-.3-.7-.2-.9,0l-.2.3s0-.1-.2-.1c-.3-.2-.7,0-.8.4v.4s-.2.1-.3.2c0,0,0,.2-.2.3,0,0-.3.1-.3.2s-.2.2-.3.3c0,.1-.2.3-.3.4s-.4.2-.7.3c0,0-.6.3-.7.3,0,0,0-.2,0-.3,0-.3-.2-.7-.3-1-.2-1,.3-1.9.8-2.3,1.3-1,2.9-2,4.5-2.9.5-.3,1.1-.5,1.6-.8.3-.2,1-1,.5-1.4M37.4,27.4h.2c0,0,.3.5,0,.4,0,0-.4,0-.3-.3M36.4,27s.2-.2.3-.2c.2,0,.3.1.4.3,0,.2,0,.6,0,.3,0-.2-.3-.4-.6-.3,0,0-.2.1-.3.1,0,0,0-.2,0-.3M35.4,27.2h.3l.3.4h-.6s-.2.2-.3.2c0,0,0-.5.2-.5M29.9,32.5c.1-.5.3-1.1.2-1.8h0c0-.1,0,.1,0,0,0,.2.2.4.4.6,0,.1.4.5.3.6,0,.2-.4.4-.5.4s-.3.2-.5.4c-.1,0,0-.2,0-.3M29.9,33.1c.4-.2.8-.4,1.1-.7h0c.1,0,.6.8.7.9h-2.1c-.1,0,.1,0,.2-.2M28,19.6h0c0,.3-.3.9-.5,1-.3.1,0,0,0-.1.2-.2.4-.4.5-.8v-.2M25.5,16.1c.3-.1.8.4.4.5h0c0,.1.1.2.2.3v.2c0,.1.3.2.4.3.3.2.4.5.6.7,0,0,.2.3,0,.2-.2-.1-.3-.3-.5-.4-.2-.2-.4-.5-.6-.8-.1-.2-.3-.3-.4-.4-.1-.2-.2-.6,0-.6M25.4,17.2c.2.1.4.4.7.7s.5.4.7.6h.1c0,.1,0,.2.1.2.2.1.5.1.5.2,0,0,.1.3,0,.4l-.4-.2h0c-.2,0-.2-.2-.3-.3h-.3c-.2.1,0,.5.1.5.3.2.6,0,.7.4,0,0,0,.3.2.4,0,0-.5.4-.6.5h-.8c-.2,0-.4-.4-.7-.2,0,0,0,.2-.2.3h-.8c-.4,0-.8,0-1.2-.1-.4-.1-.8-.4-1-.7-.2-.2-.3-.6-.4-.7,0-.2-.1-.6-.2-.8,0,0,.2.3.3.4,0,.2.2.3.3.5.3.4.7.6,1,.9.4.3,1.3.3,1.9.2.1,0,.2,0,.1-.2-.1-.1-.5-.3-.6-.5h.4c.4,0,.7.5,1,.7h.5s-.2,0-.3-.1l-.3-.2s-.4-.5-.1-.4h.3s.4.2.4,0h-.2l-.4-.4s-.2-.3,0-.4c0,0,.2,0,.3-.1v-.4c-.1-.6-1.1-.8-1.3-1.2,0,0-.2-.3-.1-.3h0c.3,0,.5.3.7.5M22.8,16.9s.1-.2.2-.2c.2,0,.3,0,.4-.1h.4c.1.2-.2,0-.3,0l-.7.2M23.3,17.1h-.2.2M22.8,17.1h0s0,.3.2.3c.3,0,.5-.1.4-.5h0c.3,0,.2.4.1.6-.2.2-.5.2-.8,0,0,0-.3-.4-.1-.4M24,14.2v-.6c0-.2.2-.4.3-.7,0-.2.1-.5.2-.7.1-.3.3-.6.3-.8h0s.2.2.2.3v.4c0,.4-.1.9-.3,1.2-.2.4-.3.5-.3.9s-.3.7-.6.4c-.1-.1,0-.3,0-.4M22.9,15.1c.2,0,.5-.1.9,0,.4,0,.7.2,1,.5l.2.3s-.3-.1-.2-.1c-.5-.3-1.2-.4-1.9-.4h-.3.3M22.8,16.3c.1,0,.2-.2.3-.2h.5l.3.2c.2.2-.1,0-.3,0-.3,0-.6,0-.8.2h-.3s-.1-.1-.1,0c0,0,.2-.2.3-.2M23.5,18.9c-.3,0-.7,0-1-.2-.2,0-.4-.3-.5-.4,0,0-.1-.4-.2-.5h0c0,.1.2.2.3.3.4.3.8.8,1.3.9M20.1,14.3c-.2-1,0-1.9.3-2.6,0-.1,0,0,.1,0,0,0,.1.2.2.2.3.3.6.6.9,1s.3,1.1.4,1.5c0,.1.1.4,0,.5h-.2c-.2.1,0,.5-.1.8-.1-.2-.2-.6-.2-.8,0-.6.2-1.4-.2-2,0-.2-.3-.4-.4-.6,0,0-.3-.3-.3-.2,0,0,0,.3.1.4.1.2.2.4.2.6s.1.2.1.3c0,.2,0,1-.1,1,0,0,0-.1-.1-.2-.2-.3-.3-.6-.4-.7h0c0,.8.2,1.6.6,2l.3.2s-.2.2-.3.2v-.2c-.4-.4-.7-1-.8-1.5M20.9,18v-.2s-.2-.2,0-.3c0,0,.2.2.2.3,0,.2-.1.5-.2.2M21.2,17.5s-.3-.5-.3-.8.3,0,.3-.3v-.2s.2-.2.3-.2c0,0,.2.3.1.4-.1.2-.4.7-.4,1M18.8,53.7h.5c0,0,.1,0,.2,0,0,0,.1.2.2.3.2,0,.5,0,.7.3,0,0,.1.2,0,.2h-.6c0,0-.4-.2-.5-.3-.2-.2-.4-.4-.7-.7h0M22.6,62.7c-.1,0-.1-.5,0-.7,0-.9.2-1.9,0-2.8v-.6s0,0-.1-.3c0-.2-.4-.7-.6-1,0,0,.2,0,.3-.2h.4c.5,0,.8.3.9.9,0,.6-.1,1.3-.3,2,0,.3,0,.7-.1,1,0,.4-.1.7-.1,1s0,.7-.1.7h-.1M22.3,56.4c0,.2-.6.5-.8.4,0,0-.2-.3-.3-.4-.3-.4-.6-.8-.9-1.1h0c.3,0,.5-.2.8,0,.1,0,.2.3.3.4,0,0,.2,0,.3.2h.5c.1,0,0,.5,0,.6M18.8,55.5c0-.2.1-.6,0-.8h0c.1.2,0,.7.1,1,0,.4.2.8,0,1.1,0,0-.2.3-.2.5-.1.2,0-.3,0-.4v-1.3M9.3,72.2c-.5.2-2.6,0-3.2.2.4,0,2.1-.2,2.5-.3.4,0,.8,0,1-.2.2,0-.2.2-.3.2M10.1,73h0M12.8,71.4c1.4-.5,2.6-1.1,3.4-2.3h0c0,.2,0,.3-.4.9-.7,1-1.6,1.4-2.7,1.8-.2,0-.6,0-.8.2-.8.2-1.3.2-2.2.2.8-.5,1.7-.4,2.7-.8M16.5,71.3c-.4.4-.7.7-1.2.9-1.4.7-3.1.7-5.1.8,1.4-.3,2.8-.5,4-1,.3,0,.8-.4,1-.6,0,0,.2,0,.2-.2,0,0,.1,0,.2-.2.6-.6,1.2-1.5,1.6-2.3.1-.3.2-.7.3-1,.1-.4.2-.9.3-1.3.2-.9.4-1.6.5-2.5.2-1.6.2-3.5.4-5.1v-.5c0,0,.1-.3.2-.5,0-.2.2-.8.2-.2,0,1.1-.2,2.1-.3,3.1,0,.4,0,.9-.1,1.3v.8c0,.6-.1,1.3-.2,2,0,0,0,.2,0,0s.1-.3.1-.3c0-.3.1-.6.1-1,0-.6,0-1.1.1-1.6v-1c0-.3,0-.6.1-1,.2-.9.4-1.8.6-2.6,0-.2.2-.6.3-.7h0c0,.8-.3,1.6-.4,2.4-.4,3.2-.5,6.9-1.5,9.8-.4,1-.9,1.8-1.7,2.5M20.6,71.1v.2h-.5c-.9,0-1.5,0-2.4.2-.2,0-.8.2-.9,0,0,0,.4-.4.4-.5.1-.2.3-.5.4-.5h.7c.6,0,1.3,0,1.9,0h.6s-.2.5-.2.6M21.1,69.1c0,.2,0,.4-.1.5h-.2c-.5,0-1.4,0-1.9,0h-.3c-.1,0-.3,0-.3,0,.7-1.7,1.2-3.8,1.4-5.8,0-1.1.1-2.2.3-3.3.2-1.3.4-2.4,1.1-3.1h0s0,0,.2.2h.2s.1.4.2.5c.2.3.4.4.5.9v3c-.1,1.2-.2,2.4-.3,3.5,0,.6-.2,1.3-.3,2,0,.5-.2.9-.3,1.5M26.1,70.8c.5,0,1.2.2,1.8.3,1.8.2,3.6.2,5.3.3,0,0,.7,0,.4,0s-.4,0-.6.2h-.5l.7.2s0,0,.2,0h-1.3s-.3,0-.3.2h1.1c.2,0,.8.2,1.1.2s0,0-.3,0h-1.4c-.7,0-1.2,0-1.8-.2h-1.5c-.7,0-1.3-.2-2-.2s-1.4-.2-2-.2h-1s.4.2.5.2c-.4,0-.9.2-1.4.2s-1.3,0-1.6,0c0,0-.1-.3-.2-.4,0-.2-.2-.3-.2-.4-.1-.6,0-1.2.2-1.7.2-.9.3-2,.4-2.9v-.6h.2c.3,0,.3.3.2.7v.5c0,.6-.3,1.8-.4,2.4v.3c.1,0,.2-.2.2-.2.6-2.1.9-4.2,1.2-6.4,0,.4,0,1.1-.1,1.6,0,.9-.1,1.9-.3,2.7-.2,1.2-.7,2.1-.7,3.3s0,.5.2.7c.1.2.5,0,.9,0h.8s-.3,0-.3,0c-.2,0-.5-.2-.5-.2-.5-.4-.4-1.3-.3-2,.2-.9.3-2.1.4-2.9.1-.9.2-1.7.3-2.6.1-1.2.1-2.4.2-3.4,0-.7,0-1.5.2-2.2.1-.8.3-1.2.5-1.9,0,0,0-.2.1-.4l.2-.3s0,.3-.1.4c-.3,1.1-.4,2.4-.4,3.7v1c0,1.6,0,3.4-.2,4.8,0,.6-.2,1.3-.2,2s-.1.3,0,.2c.2,0,.1-.7.2-.9,0-.2.2-.4.2-.7v-1.3c0-.6.1-1.2.2-1.9,0-.4,0-.9.1-1.3,0-.2.2-.3.3-.4.1-.3.1-.8.1-1.2,0-.9.2-1.6.3-2.4.1-.8.2-1.4.4-2.1,0-.3.2-.5.3-.8,0,0,.2-.4.2-.6v-.2s-.2.3-.3.4c-.2.3-.3.6-.5.9l-.3.4.2-.5c.2-.6.5-1.1.7-1.6.3-.6.3-1.3.5-2,.1-.4.2-.8.2-1.3s.1-.9,0-1.3c0,0,0-.3-.1-.3v.4c0,.9-.3,1.8-.6,2.7,0,0-.2.5-.2.4,0-.4.1-.7.2-1.1,0-.9.2-1.5.2-2.3v-1c-.1-.5-.4-.8-.6-1.2s-.3-.9-.4-1.4-.4-.7-.7-1.1c-.1-.2-.3-.4-.4-.6-.3-.3-.7-.4-1.1-.5-.3,0-.6-.3-1-.4-.2,0-.7-.2-1-.2s0,0,.2,0c.6,0,1.1.2,1.6.3.4,0,.6,0,.9.2.3,0,.7.2.8.3.7.8,1.1,1.7,1.6,2.7.6,1,1.1,1.9,1.2,3.1v3.6c0,.9-.3,2-.6,2.8-.2.6-.4,1.2-.6,1.8-.1.6-.2,1.3-.3,2,0,1-.3,2-.4,3-.3,2.3-.7,4.2-.8,6.4v.3c0,0-.2,0-.3.2v.2c0,.3-.3.9-.2,1.2,0,.2.2.3.4.3h1.1c-.3,0-.7-.3-.8-.5,0,0-.3-.6-.3-.7.1-.2.3.2.3.2.3.4.8.7,1.5.9M28.8,36.3c-.1.7-.2,1.5-.3,2.2-.1,1.7-.1,3.5-.3,5.1-.2,1.5-.3,2.8-.5,4.2h0c.3-.9.4-2,.6-3.1v-.5s.1.2.1.3c.3.6.5,1.4.6,2.2.2,1,.2,2.2.2,3.3s0,1.6-.3,2.3c-.1.4-.4.9-.5,1.3-.2.7-.6,1.2-.7,1.9s-.2,1.4-.3,2.1h0c-.3,2.4-.6,4.6-.8,6.8,0,.5-.1,1.1,0,1.6,0,.6.3.9.7,1.2,2,1.1,5.1,1,7.6,1.5-.5,0-1,0-1.5,0h0c.5,0,1.3,0,1.8.2-.5,0-1.1,0-1.6.2h0c0,0,.5.2.5.3,0,0-.3,0-.3,0-.6,0-1.5,0-2.1,0-1.3-.2-2.7-.3-4-.2h-2.6c-.1,0-.3-.6-.2-.7h.2c0,0,0,0,0,.2s.2.2.4.2c.3,0,.7-.2,1-.2,1.2,0,2.5.3,3.6.2h0c-1.1-.3-2.2-.3-3.4-.4-.2,0-.9,0-.9,0,0-.2.1-.5.1-.6h0v-1.7c0-2.1.1-4.2.3-6.3,0-.8.2-1.6.2-2.4s.2-.9.3-1.2c0-.2.1-.4.2-.6.4-1.3.6-2.6.7-4.1,0-1.3,0-3-.4-4.1,0,0-.1,0-.1-.2-.3-.9-.7-1.5-1.1-2.1-.2-.3-.3-.5-.5-.8s-.4-.5-.7-.8c-.2-.3-.4-.6-.7-.8-.3-.2-.8-.3-1.2-.3s-.9-.3-1.4-.3h-.5c-.1,0-.6,0-.4,0,.7-.4,1.6-.3,2.4,0,.3,0,.6,0,.9.2.7.2,1.1.7,1.5,1.1l.3.4c.1,0,.2-.4.2-.6,0-.9-.9-1.3-1.2-2-.1-.3.2-.3.4-.2.4.2,1.3.3,1.3-.3s-.1-.3-.1-.4,0-.3.2-.4h.3c1-.5.8-2.2.9-3.5,0-.4.1-.7.2-1h1v.8M33.3,32.8s-.2.6-.4.7h0c.3,0,.4-.2.7-.3,0,0,.4-.2.5,0,0,0-.2.4-.3.4-.2.2-.3.2-.4.3h0c.4,0,1.1-.3,1.5-.2l.3.3s-.6,0-.7.2c-.5,0-.8.2-1.1.4h0c.5,0,1.2.3,1.4.7,0,0,.3.4,0,.3-.3-.2-.8-.4-1.2-.5,0,0-.7,0-.7,0,0,0,0,0,0,0,.3,0,.5.2.7.4l.3.3-.2.2c-.3,0-.6-.4-.8-.5-.4-.2-1.1-.4-1.7-.3h-2.9c-.8,0-1.5,0-2.3-.2-.8,0-1.7-.2-2.4-.2h-1c-.7-.3-.6-1.3-.7-2.1,0-1-.2-1.7-.3-2.7.2.3.2.6.3.9.1.3.3.5.5.7.2.3,0,.7,0,1.1,0,.8,0,1.5.8,1.7h.2s.2,0,.2,0h.9c.3,0,.7,0,1,0s.6,0,.8,0c1.2.2,2.5.3,3.6.4h0c-.4,0-.9-.2-1.3-.4-.4,0-.8,0-1.2-.2-.3,0-.5-.2-.7-.2h-.2c-.6-.2-1.4,0-1.9-.3-.4,0-.7-.4-1-.6h-.1c-.1,0-.4-.5-.5-.7,0-.2,0-.8.1-1,.1-.1.4-.2.5-.2.4-.2.8-.7.8-1.2v-.5s.4.1.5.2c.1.2.1.5.3.6h0c0-.2,0-.5-.1-.7v-.7c0-.1-.1-.2-.2-.3,0,0-.2-.1-.2-.2v-.6c0-.1,0-.3-.2-.4l-.3-.3v-.3c0-.2-.1-.5-.2-.7,0-.3.1,0,.2,0,.3.2.4.5.6,1,0,.2.2.5.3.7,0,.1.2.3.2,0v-.6c0-.4.2-.8.1-1.2,0-.4-.3-.5-.2-1,0-.2.2-.3.2-.6s-.2-.6-.3-1v-.3c0-.4-.1-1.1,0-1.6,0-.3,0,.2,0,.3.1.9.6,2,1.1,2.5.5.4.9.8,1.3,1.4.8.9,1.2,2.2,1.6,3.4.2.4.3,1.2.3,1.7s-.2,1.3-.4,1.8c0,0,0,.4-.1.4l-.3-.3v-.6c0-.8,0-1.4-.2-2.1-.2-.8-.6-1.6-1-2.3,0-.1-.2-.5-.3-.4v.3c.7,1.1,1.1,2.4,1.1,4v.5s-.4-.2-.5-.2c-.2-.2-.5-.6-.7-.9h0c0,.3.1,1.3-.2,1.4-.1,0-.3,0-.4,0s-.3,0-.4,0c-.4,0-.2,0-.4-.4,0,0-.1,0-.2-.2v-.2c-.1-.2-.4-.4-.4-.5v-.3c0-.1-.2-.5-.2-.5-.1,0-.2.4-.2.6,0,.3-.2.6-.1,1v.5c.1,0,.4,0,.5,0,.3,0,.7.2,1.1.3.8.2,1.6.5,2.5.6.4,0,.9.2,1.3.2s1.2,0,1.7,0c.2,0,.5-.3.7-.4,0,0,.6-.4.7-.4M33,24.7c-.3.2-.5.4-.8.6-.2.2-.4.5-.6.7-.3.5-.5,1.3-.5,1.9,0,1.6.8,3,1.4,4.3,0,.2.3.5.3.6s-.2,0-.3,0c-.4-.5-.8-1.3-1.1-1.9-.3-.7-.7-1.7-.8-2.6-.2-1,0-1.9.6-2.6.4-.5,1.1-.9,1.7-1.3.6-.4,1.2-.7,1.8-1,0,0,.3-.2.3-.1,0,0-.5.4-.6.5-.4.3-.8.6-1.3.9M35.3,23.3l-.5.3s.3-.3.2-.2q.2-.2.5-.3c.4-.2.7-.3,1-.4-.5.3-.8.5-1.2.7M36.9,22.4h0"/>
    <path class="st5" d="M76.6,25.9h0"/>
    <path d="M84,13.6h0q0-.1,0,0h0"/>
    <path d="M78.6,16.6h0"/>
    <path d="M78.9,30.4h0"/>
    <path d="M73.9,35.1h0c0,0,0,0,0,0h0"/>
    <path d="M71,34.6h0"/>
    <path d="M71,33.9h0"/>
    <path d="M71.6,33.5h0"/>
    <path d="M77.1,31.2h0"/>
    <path d="M74.3,69.3h0"/>
    <path d="M70.7,69.5h0Z"/>
    <path d="M70.9,69.1h0"/>
    <path d="M76.8,57.8h0"/>
    <path d="M76.7,48h0c0,0,0,0,0,0Z"/>
    <path d="M79.1,70.9h0"/>
    <path d="M84.2,55.4h0"/>
    <path d="M94.5,73h0"/>
    <path d="M94.6,73h0"/>
    <path class="st5" d="M102.3,72.4c-.9-.2-1.9-.4-2.9-.5-1.2,0-2.4,0-3.5-.2h-1.1c-2.3-.4-4.7-.9-5.8-2.6-.4-.8-.6-1.7-.7-2.5,0-.5-.2-1-.2-1.5,0-1.1,0-2.2,0-3.3v-2.7c0-1.3,0-3,.2-4.6,0-.6.2-1.1.2-1.7,0-1.1,0-2.1,0-3,0-.5,0-.9-.2-1.5,0-.4,0-.7-.2-1.1-.2-1.3-.6-2.4-1.1-3.6-.4-1.1-.8-2.5-1.2-3.6-.2-.6-.5-1.2-.7-1.8-.4-1.2-.7-2.4-1.2-3.7-.2-.6-.5-1.3-.5-1.9v-1.2c0-.8,0-1.7,0-2.6s-.3-2.3-.5-3.4c0-.6-.2-1.2,0-1.7,0-.6.2-1.2.2-1.8v-.6c0-.4.2-.8.3-1.2,0-.4.2-.8.2-1.3,0-.8.2-1.7,0-2.4v-.2c0-.1.3-.5.4-.6.2-.4.4-.9.4-1.6s0-1.7-.3-2.2c0-.1-.3-.4-.6-.3,0,0,0,.2-.2.2-.4.5-1.1,1-1.3,1.7-.2.5,0,.9-.3,1.4v.2l-.4-.2c-.8-.7-1.1-1.7-1.5-2.8,0-.3-.2-.5-.3-.7h-.3c-.3.1-.6.8-.7,1.3,0,.9.3,1.7.4,2.3v.9s-.2.3-.3.3h-.3c-.2,0-.5.4-.5.6v.2h-.3c0,.1.2.1.3.2.2.2,0,.3-.2.5-.4.3-.7,1-1.1,1.2-.2.1-.5.2-.5.4v.2c0,.2,0,.4,0,.6,0,.5.3,1.2,1,1.2h.3c0,0,.3.1.4.2h.5s.2-.1.3,0v.5c0,.6-.3,1.1-.5,1.5s-.3.9-.6,1.2c-.3.4-.7.6-1.1,1.1,0,.2-.3.4-.4.6s-.2.4-.3.7v-.5c0-.7-.5-1.3-1.1-1.7-2-1.5-4.7-2.7-7.6-3.6-.4-.1-1.2-.4-1.6,0-.6.4.2,1.2.5,1.4.5.4,1.1.6,1.6.8,1.6.8,3.2,1.8,4.5,2.9.5.4,1.1,1.3.8,2.3,0,.3-.2.7-.3,1,0,0,0,.3,0,.3,0,0-.6-.2-.7-.3-.3-.1-.5-.2-.7-.3,0,0-.2-.3-.3-.4,0,0-.2-.2-.3-.3,0-.1-.2-.1-.3-.2,0,0,0-.2-.2-.3,0,0-.3,0-.3-.2v-.4c0-.3-.5-.6-.8-.4h-.2c0,.1,0-.1-.2-.2-.2-.2-.6-.3-.9,0l-.2.4s0,0-.2-.1c-.3,0-.5.2-.5.5v.3h-.4c-.2,0-.2.3-.2.4,0,.5.5.8.9,1,0,0,.6.4.7.3,0,0,0-.2-.2-.3,0,0,0-.3,0-.3l.3.3s.3.2.4.2c0,0,0-.3,0-.4l.3-.3v.2s.5.5.5.4c0,0,0-.3,0-.4h.2l.2-.2.3.3c.2.2.6.5.9.2,0,0,0-.2,0-.2,0,0,.3.3.3.4.3.2.7.3,1.1.5h.3s-.2.5-.2.6,0,.2,0,.3c0,0,0,.3,0,.3l-.4-.2c-.3-.2-.5-.2-.8-.4,0,0-.7-.4-.7-.1s.9.6,1,.6c0,0,.2.1.4.2l.3.2v.2c0,.2-.2.3-.4.5s-.2.4-.3.5h-.2c0,0-.3,0-.4.2h0c0,0-.3,0-.3,0,0,0-.3,0-.5.2,0,0,0,.2-.2.4,0,.2-.3,0-.4.2,0,0-.2.2-.2.5v.2c0,0,0,.4,0,.7,0,0,0,.2.2.2,0,0,0-.2,0-.3,0-.3.2-.5.5-.5h.2s0,.3,0,.2c0,.2-.7.4-.7.7v.2c0,.3-.2.6,0,.9.2.6,1,.5,1.4,0q0-.2.4-.3c.4,0,.5-.5.8-.7.5-.2,1.3-.3,2-.3h1.7s0,.9.2,1.1c.3,2.2.2,4.3.4,6.5,0,.2,0,.5,0,.7,0,0-.2.3-.3.4-.3.6-.6,1.5-.8,2.3-.3,1.4-.3,3.1-.2,4.5,0,.3,0,.7.2,1,0,.3.2.6.3,1v.3c0,0,0,.2,0,.3.2.5.5,1.1.7,1.6.4,1.1.4,2.5.6,3.8,0,.3,0,.6.2.9,0,.4,0,.8.2,1,0,.3,0,.7,0,1.1,0,1,.2,2.2.4,3.2,0,.7,0,1.7-.5,2-1.3.6-3,.9-4.5,1-.5,0-1.2,0-1.8.2h-.8c-.2,0-.5,0-.9,0-.3,0-.7.2-1,.3-.3,0-.4.2-.7.3,0,0-.3,0-.2.2h.3v.2h-.2c-.2,0-.4.2-.6.4h1c.2,0,.6,0,.3,0,0,0-.4.2-.3.3h.6c.2,0,.4.2.6.2.5,0,1.2-.3,1.7-.2,0,0,.2,0,.3,0h.8c1.2,0,2.8-.3,4-.3h4.1l-.7.3c-.5,0-1.2.2-1.8.2s-1.1,0-1.6.2h-.6c-.5,0-1-.2-1.5,0-.4,0-.6.2-1,.2h-1.4c-.4,0-.8.4-1.1.5,0,0,0,0-.2,0h-.2s-.6.2-.5.3h.6c0,0,.4,0,.2,0,0,0-.5,0-.7.2,0,0-.4.3-.3.3,0,0,.6,0,.8,0,0,0,.2,0,.3,0s0,0,0,0c0,0-.4.4-.3.5,0,0,.2,0,.3,0h.6s0,0,.2,0h.9c.2,0,.4,0,.8,0,.3,0,.6,0,.9-.2,1.2,0,2.1,0,3.3-.2,1.5,0,2.8-.3,4.2-.2.9,0,1.6,0,2.5,0,.2,0,.4,0,.5,0,0,0,.2-.3.4-.3h.4c1.4,0,2.7,0,4.1.2h.7c.2,0,.4.2.7.3,2.1.6,5,.7,7.5.7s2.5,0,3.9,0h1.3c.3,0,.9-.4.9-.6s-.6-.3-.8-.3M66.7,27.7c-.2.2,0-.4,0-.4h.2c0,.2-.2.2-.3.3M68.2,27.3s-.2-.1-.3-.1c-.3,0-.5.1-.6.3-.2.3,0-.1,0-.3s.2-.4.4-.3c0,0,.3.1.3.2,0,0,.2.3,0,.3M69.2,27.7s-.2-.2-.3-.2h-.6l.3-.4h.3l.2.5M84,54.5c.2-.2.5-.2.7-.3,0,0,0-.2.2-.3h.2c0,0,.4-.2.5,0,0,0,0,0,0,0-.2.2-.4.4-.7.7,0,0-.4.4-.5.4h-.6v-.3M85.6,55.5v1.3c0,0,0,.6,0,.4s-.2-.4-.2-.5v-1.1c0-.3,0-.8,0-1h0v.8M82,62v.7h0c0,0,0-.6,0-.7,0-.3,0-.6,0-1s0-.7,0-1c0-.7-.3-1.4-.3-2s.3-.9.9-.9h.4c0,0,.4,0,.3.2-.2.2-.5.7-.6,1,0,0,0,.2,0,.3v.6c0,.9,0,1.9,0,2.8M82.2,56.4c0,0,0-.5,0-.6h.5c0,0,.3,0,.3-.2,0,0,.2-.3.3-.4.3,0,.5.2.8,0h0c-.3.3-.6.7-.9,1.1,0,0-.2.4-.3.4-.2,0-.7-.2-.8-.4M83.3,17.5c0-.2-.3-.7-.4-1,0-.2,0-.4,0-.4s.2.2.3.2,0,0,0,.2c0,.3.3,0,.3.3s-.3.9-.3.8M83.5,17.8v.2c0,.3-.2,0-.2-.2s.2-.3.2-.3v.3M82.4,14.4c0-.5,0-1.1.4-1.5.2-.3.6-.6.9-1,0,0,0-.2.2-.2,0,0,0-.2,0,0,.3.7.6,1.6.3,2.6,0,.5-.4,1.1-.7,1.5v.2c0,0-.4-.1-.4-.2,0,0,.2-.2.3-.2.4-.4.5-1.2.6-2h0c-.2.1-.3.4-.4.7,0,0,0,.2,0,.2,0,0,0-.8,0-1s0-.2,0-.3c0-.2,0-.3.2-.6,0,0,.2-.3,0-.4l-.3.2c0,.1-.4.4-.4.6-.3.6-.2,1.4-.2,2s0,.7-.2.8c0-.3,0-.7,0-.8h-.2v-.5M82.3,18c0,0,.2-.1.3-.3h0c0,.1,0,.5-.2.5,0,0-.3.3-.5.4-.3.2-.7.2-1,.2.6-.1,1-.5,1.3-.9M80.9,16.7s-.4.1-.3,0c0,0,.3-.1.4,0,0,0,.3,0,.4.1,0,0,.2.1.2.2,0,0-.6-.1-.7-.2M81.4,17.1h-.2.2M80.8,16.9c0,0,0,0,0,0,0,.3,0,.5.4.5s.2-.3.2-.3h0c.2,0,0,.3,0,.4-.2.2-.6.2-.8,0,0-.1-.2-.6,0-.6M81.9,16.6s-.2,0,0,0h-.3c-.2,0-.5-.2-.8-.2s-.5.2-.3,0c0,0,.4-.2.3-.2h.5q.2,0,.3.2s.3.1.3.2M81.5,15.1h.3c0,.1-.3,0-.3,0-.7,0-1.4.2-1.9.4h-.2c0,.1.2-.2.2-.2.2-.3.6-.4,1-.5h.9M79.3,12.1v-.4l.2-.3h0c0,.3.2.5.3.8,0,.2,0,.5.2.7,0,.2.2.5.3.7v.6c0,.1.2.3,0,.4-.2.2-.5-.2-.6-.4,0-.3-.2-.5-.3-.9-.2-.4-.3-.8-.3-1.2M77.5,18.2c.2-.2.3-.5.6-.7,0,0,.4-.2.4-.3v-.2c0-.1.2-.2.2-.3h0c-.4,0,0-.6.4-.5v.6c0,.1-.2.2-.4.4-.2.3-.4.5-.6.8,0,.1-.3.3-.5.4-.2.2,0-.1,0-.2M76.9,20.7c-.3-.1-.6-.7-.5-1,0,0,0-.1,0,0v.2c0,.4.2.6.5.8,0,0,.3.3,0,.1M78.5,20.8h-.8c0,0-.7-.4-.6-.5,0,0,0-.3.2-.4,0-.5.3-.3.7-.4,0,0,.3-.4,0-.5h-.3s-.2.2-.3.3h0l-.4.2v-.4s.3,0,.5-.2h0c0-.1,0-.1,0-.2,0-.2.4-.3.7-.6.3-.3.5-.5.7-.7.2-.1.4-.5.7-.5h0v.3c-.3.4-1.3.6-1.4,1.2v.4c0,.1.3,0,.3.1v.4c0,.1-.3.4-.4.4h-.2c0,.2.3,0,.4,0,.2,0,0,.2.3,0,.2,0,0,.3,0,.4,0,0-.2.2-.3.2,0,0-.3,0-.3.1s.5,0,.5,0c.3-.1.7-.6,1-.7.2,0,.5,0,.4,0,0,.2-.5.3-.6.5s0,.1,0,.2c.6,0,1.5,0,1.9-.2.4-.3.7-.6,1-.9,0-.1.2-.3.3-.5,0-.1.3-.5.3-.4,0,.2,0,.7-.2.8,0,.2-.2.5-.4.7-.2.2-.6.6-1,.7s-.8,0-1.2.1c0,0-.6.1-.8,0,0,0,0-.2-.2-.3-.3-.1-.5.2-.7.2M74.4,30.6h0c0,.8,0,1.4.2,1.9,0,0,0,.4,0,.3,0,0-.3-.3-.5-.4,0,0-.5-.3-.5-.4s.3-.5.3-.6c0-.2.3-.4.4-.6,0,0,0-.2,0-.1M74.8,33.3c-.5,0-1.3,0-1.8,0h-.3c0-.2.5-.9.7-.9h0c.3.3.7.5,1.1.7,0,0,.3.2.2.2M67.6,22.4h0M69.1,23.3c-.4-.2-.8-.4-1.2-.7.3.1.6.3,1,.4.3.1.3.2.5.3,0,0,.3.2.2.2l-.5-.3M71.9,32.2c.6-1.3,1.3-2.7,1.4-4.3,0-.6-.2-1.4-.5-1.9,0-.2-.4-.5-.6-.7-.3-.2-.5-.4-.8-.6-.4-.3-.8-.5-1.3-.9,0-.1-.6-.4-.6-.5,0,0,.2,0,.3.1.6.3,1.1.6,1.8,1,.6.4,1.3.8,1.7,1.3.5.7.8,1.6.6,2.6,0,.9-.5,1.8-.8,2.6-.3.6-.7,1.4-1.1,1.9,0,0-.2.2-.3,0,0,0,.2-.4.3-.6M73,35.1c-.6,0-1.3,0-1.7.3-.2,0-.5.6-.8.5,0,0-.2,0-.2-.2l.3-.3c.2-.2.4-.3.7-.4,0,0,0,0,0,0h-.7c-.3,0-.9.3-1.2.5-.2,0,0-.2,0-.3.3-.4.9-.6,1.4-.7h0c-.3-.2-.6-.3-1.1-.4,0,0-.6,0-.7-.2l.3-.3c.4,0,1.1.2,1.5.2h0c0,0-.2-.2-.4-.3,0,0-.4-.4-.3-.4,0,0,.4,0,.5,0,.3,0,.4.2.7.3h0c0,0-.4-.7-.4-.7,0,0,.6.3.7.4.2.2.5.4.7.4.4,0,1.1,0,1.7,0s.9,0,1.3-.2c.8,0,1.7-.4,2.5-.6s.7-.3,1.1-.3.4,0,.5,0v-.5c0-.4,0-.7,0-1,0-.1,0-.6-.2-.6,0,0-.2.4-.2.5v.3c0,.2-.3.3-.4.5v.2s0,0-.2.2c-.2.2,0,.3-.4.4,0,0-.3,0-.4,0,0,0-.3.2-.4,0-.3,0,0-1.1-.2-1.4h0c-.2.3-.5.7-.7.9,0,0-.4.3-.5.2v-.5c0-1.6.4-2.9,1-4,0,0,.2-.3,0-.3s-.2.3-.3.4c-.4.6-.8,1.4-1,2.3-.2.7-.2,1.3-.2,2.1v.6l-.3.3s0-.4,0-.4c-.2-.6-.4-1.2-.4-1.8s0-1.3.3-1.7c.5-1.2.8-2.4,1.6-3.4.4-.6.8-.9,1.3-1.4s1-1.6,1.1-2.5c0,0,0-.5,0-.3,0,.4,0,1.2,0,1.6v.3c0,.4-.3.7-.3,1s0,.4.2.6c0,.4-.2.6-.2,1s0,.8,0,1.2v.6c0,.3,0,0,.2,0,0-.2.2-.5.3-.7,0-.5.3-.8.6-1,0,0,.2-.3.2,0s0,.5-.2.7v.3c0,.1-.2.2-.3.3,0,.1,0,.3-.2.4v.6c0,.1-.2.1-.2.2,0,0,0,.2-.2.3v.7c0,.2-.2.5,0,.7h0c0-.2,0-.5.3-.6,0,0,.4-.3.5-.2v.5c0,.5.3,1,.8,1.2.2,0,.4,0,.5.2.2.2.2.8,0,1,0,.2-.4.6-.5.7h0c-.3,0-.6.4-1,.6-.6.2-1.4.2-1.9.3h-.2c-.2,0-.4,0-.7.2-.4,0-.8,0-1.2.2-.4.2-.9.3-1.3.4h0c1.2,0,2.5-.2,3.6-.4.3,0,.6,0,.8,0,.4,0,.7,0,1,0h.9s.2,0,.2,0h.2c.7,0,.8-.9.8-1.7s0-.8,0-1.1c0-.2.4-.4.5-.7,0-.3.2-.6.3-.9,0,1-.2,1.8-.3,2.7,0,.8,0,1.8-.7,2.1-.3,0-.6,0-1,0-.8,0-1.6,0-2.4.2-.7,0-1.5.2-2.3.2h-2.9M79,69.7h-2.3c-1.3,0-2.8,0-4,.2-.6,0-1.5.3-2.1,0h-.3c0-.2.3-.4.5-.4h0c-.5,0-1-.2-1.6-.2.5-.2,1.2,0,1.8-.2h0c-.5,0-1,0-1.5,0,2.4-.5,5.6-.4,7.6-1.5.4-.2.7-.5.7-1.2v-1.6c-.2-2.3-.5-4.5-.8-6.8h0c0-.7-.2-1.5-.3-2.1-.2-.7-.6-1.3-.7-1.9,0-.4-.4-.8-.5-1.3-.2-.7-.3-1.5-.3-2.3s0-2.3.2-3.3c0-.7.3-1.5.6-2.2v-.3c0,0,0,.4,0,.5.2,1,.3,2.2.6,3.1h0c-.2-1.4-.4-2.7-.5-4.2-.2-1.7-.2-3.4-.3-5.1,0-.7,0-1.6-.3-2.2,0,0,0-.7,0-.8h1c0,.3.2.6.2,1,.2,1.3,0,3,.9,3.5h.3s.2.3.2.4c0,.2,0,.3,0,.4,0,.6.8.4,1.3.3.3,0,.5,0,.4.2-.3.6-1.2,1.1-1.2,2s0,.6.2.6c0,0,.3-.3.3-.4.4-.5.7-1,1.5-1.1.3,0,.6,0,.9-.2.8-.3,1.6-.3,2.4,0,.2,0-.3,0-.4,0h-.5c-.5,0-1,.3-1.4.3s-.9,0-1.2.3c-.3.2-.5.5-.7.8s-.5.6-.7.8c-.2.3-.3.5-.5.8-.5.7-.9,1.3-1.1,2.1,0,0,0,.2,0,.2-.5,1.1-.4,2.8-.4,4.1,0,1.5.3,2.8.7,4.1,0,.2,0,.4.2.6.2.3.3.7.3,1.2,0,.9,0,1.6.2,2.4.2,2.2.2,4.2.3,6.3v1.6h0c0,.2.2.5,0,.7,0,0-.8,0-.9,0-1.2,0-2.4.2-3.4.4h0c1.1,0,2.4-.3,3.6-.2.3,0,.7.2,1,.2s.3,0,.4-.2v-.3s.2,0,.2,0,0,.7-.2.7h-.3M83.2,71.5c0,0,0,.3-.2.4,0,0,0,.4-.2.4-.3.2-1.3,0-1.6,0-.5,0-1,0-1.4-.2,0,0,.6,0,.5-.2h-1c-.6,0-1.3,0-2,.2-.6,0-1.3.2-2,.2h-1.5c-.6,0-1.1.2-1.8.2h-1.4c0,0-.6,0-.3,0s.8-.2,1.1-.2h1.1c0,0-.2,0-.3-.2h-1.3c.2,0,0,0,.2,0,0,0,.7,0,.7-.2h-.5c-.2,0-.4,0-.6-.2-.3,0,.3,0,.4,0,1.7,0,3.5,0,5.3-.3.6,0,1.3,0,1.8-.3.6-.2,1.2-.4,1.5-.9,0,0,.2-.4.3-.2,0,0-.2.6-.3.7,0,.2-.5.4-.8.5h1.1c.2,0,.4,0,.4-.3s0-.9-.2-1.2v-.2s-.2,0-.3-.2v-.3c-.2-2.2-.6-4.1-.8-6.4,0-1-.3-1.9-.4-3,0-.7-.2-1.4-.3-2,0-.6-.4-1.2-.6-1.8-.3-.9-.5-1.9-.6-2.8v-3.6c0-1.3.6-2.2,1.2-3.1.6-1,.9-1.9,1.6-2.7.2-.2.5-.2.8-.3s.5,0,.9-.2c.5,0,1-.4,1.6-.3,0,0,.5,0,.2,0s-.8,0-1,.2c-.4,0-.6.3-1,.4-.4,0-.8.2-1.1.5,0,.2-.3.4-.4.6-.3.3-.6.6-.7,1.1s0,1-.4,1.4c-.2.4-.5.7-.6,1.2v1c0,.8,0,1.5.2,2.3,0,.4,0,.7.2,1.1,0,0,0-.3-.2-.4-.3-.8-.5-1.7-.6-2.7v-.4s0,.2,0,.3v1.3c0,.5,0,1,.2,1.3.2.7.2,1.4.5,2,.2.5.5,1,.7,1.6l.2.5-.3-.4c-.2-.3-.3-.5-.5-.9,0,0-.2-.4-.3-.4v.2c0,0,.2.5.2.6,0,.3.2.5.3.8.2.8.3,1.3.4,2.1s.3,1.5.3,2.4,0,.9,0,1.2c0,.2.2.2.3.4,0,.4,0,.8,0,1.3,0,.7.2,1.3.2,1.9v1.3c0,.3,0,.5.2.7,0,.3,0,.8.2.9,0,0,0,0,0-.2,0-.7-.2-1.4-.2-2,0-1.4-.2-3.2-.2-4.8v-1c0-1.3,0-2.6-.4-3.7v-.4c0,0,0,.3,0,.3,0,0,0,.3,0,.4.2.7.4,1.1.5,1.9,0,.7.2,1.5.2,2.2,0,1.1,0,2.3.2,3.4,0,.9.2,1.7.3,2.6,0,.9.2,2,.4,2.9,0,.7.2,1.7-.3,2,0,0-.4.2-.5.2,0,0-.3,0-.3,0s.6,0,.8,0c.4,0,.7,0,.9,0,0,0,.2-.4.2-.7,0-1.3-.5-2.2-.7-3.3,0-.8-.2-1.8-.3-2.7,0-.5-.2-1.2,0-1.6.3,2.2.6,4.3,1.2,6.4,0,0,0,.3.2.2v-.3c0-.6-.4-1.8-.4-2.4v-.5c0-.4,0-.6.2-.7h.2v.6c.2.9.2,2,.4,2.9,0,.5.3,1.2.2,1.7M83.4,69.6s0-.3,0-.5c0-.5-.2-1-.3-1.5,0-.7-.2-1.4-.3-2,0-1.1-.2-2.2-.3-3.5,0-1-.2-2.1,0-3,0-.5.3-.6.5-.9,0,0,0-.4.2-.5h.2c0,0,0-.2.2-.2h0c.6.8.8,1.9,1.1,3.2.2,1,.2,2.2.3,3.3.2,2,.7,4.1,1.4,5.8,0,.2-.2,0-.3,0h-.3c-.5,0-1.4-.2-1.9,0,0,0,0,0-.2,0M86.7,71.6c-.9,0-1.5,0-2.4-.2h-.5v-.2s-.2-.5-.2-.6h.6c.5,0,1.2,0,1.9,0h.7c0,0,.3.4.4.5l.4.5c0,0-.7,0-.9,0M89.1,72.2c-.5-.2-.8-.5-1.2-.9-.7-.7-1.3-1.5-1.7-2.5-1.1-2.8-1.1-6.5-1.5-9.8,0-.8-.3-1.6-.4-2.4h0c0,.2.3.6.3.7.2.8.4,1.7.6,2.6,0,.3,0,.7,0,1v1c0,.5,0,1,0,1.6s0,.7,0,1c0,0,0,.2,0,.3h0c0-.8-.2-1.5-.2-2.1v-.8c0-.4,0-.9,0-1.3,0-1.1-.3-2.1-.3-3.1s0,0,.2.2c0,.2.2.4.2.5v.5c.2,1.6.2,3.5.4,5.1,0,.9.3,1.7.5,2.5,0,.4,0,.9.3,1.3,0,.3.2.7.3,1,.4.8.9,1.7,1.6,2.3l.2.2s.2,0,.2.2c.2.2.7.4,1,.6,1.2.5,2.5.8,4,1-2,0-3.6,0-5.1-.8M92.1,72c-.2,0-.6,0-.8-.2-1.2-.4-2.1-.8-2.7-1.8-.5-.7-.4-.7-.4-.9h0c.8,1.2,2,1.8,3.4,2.3,1,.3,1.9.3,2.7.8-.9,0-1.4,0-2.2-.2M94.4,73h0M95.1,72.2s-.6-.3-.3-.2c.2,0,.6,0,1,.2.5,0,2.2.2,2.5.3-.6,0-2.7,0-3.2-.2"/>
    <path class="st5" d="M25.4,16c.2,0,.8,0,.8.4s0,.8-.5.7c-.5-.2-.6-1.1-.3-1.1"/>
    <path class="st5" d="M79,16c-.2,0-.8,0-.8.4s0,.8.5.7c.5-.2.6-1.1.3-1.1"/>
    <path d="M57,13.4c-.2-.2-1,1.2-.9,2.4-.2-.9-2.5-.6-1.3,1.4.4.4,0-1.2.6-1,.7.2.4.6.2.7,0,0-.4.3,0,.7.3.2-1.2.9-2.1.4-.9-.6-1.1-1.3-.9-1.4.2,0,.7.3,1.2.8,0-.3,0-1.3,0-2.3,0-.3-1.3.9-1.4.7,0-.7,1.1-1.6,1.1-1.6,0-.2-.3,0-.3,0,0-.5,0-1.5,0-1.5,0-.1,1-1,2.4-.8,1.4.3,1.2.3,1.3.2,0,0,1.9-.9,3.1-.4.2,0,.8.3.8.5s0,1.4-.6,2.9c0,.3-.3,0-.8,0,0,0,.7,1.6.7,1.7,0,.3-.2.2-.3,0-.2-.2-.5-.7-.8-1.1,0-.1-.5,2-.7,2.3,0,.2,1.3-.5,1.5-.4.3.1-.6,1.3-1.8,1.1-1.4-.3-1.4-.9-1.2-.9s.5-.4,0-.6c-.3-.1,0-.7.4-.6.8.2,0,1.4.2,1.2,1.9-1.2,0-2.7-.7-1.8,0-.4.4-1.5-.3-2.4"/>
    <path d="M47.4,13.4c.2-.2,1,1.2.9,2.4.2-.9,2.5-.6,1.3,1.4-.4.4,0-1.2-.6-1-.7.2-.4.6-.2.7,0,0,.4.3,0,.7-.3.2,1.2.9,2.1.4.9-.6,1.1-1.3.9-1.4-.2,0-.7.3-1.2.8,0-.3,0-1.3,0-2.3,0-.3,1.3.9,1.4.7,0-.7-1.1-1.6-1.1-1.6,0-.2.3,0,.3,0,0-.5,0-1.5,0-1.5,0-.1-1-1-2.4-.8-1.4.3-1.2.3-1.3.2,0,0-1.8-.9-3.3-.4-.2,0-.6.2-.6.5s0,1.4.6,2.9c0,.3.3,0,.8,0,0,0-.7,1.6-.7,1.7,0,.3.2.2.3,0,.2-.2.5-.7.8-1.1,0-.1.5,2,.7,2.3,0,.2-1.3-.5-1.5-.4-.3.1.6,1.3,1.8,1.1,1.4-.3,1.4-.9,1.2-.9s-.5-.4,0-.6c.3-.1,0-.7-.4-.6-.8.2,0,1.4-.2,1.2-1.9-1.2,0-2.7.7-1.8,0-.4-.4-1.5.3-2.4"/>
    <path d="M49.2,19.5c0,.3-.4.5-.9.6-.5,0-1-.2-1-.4,0-.3.4-.5.9-.6.5,0,1,.2,1,.4"/>
    <polygon points="44 20 44.4 20.6 45.5 19.7 44.2 19.2 44 20"/>
    <path class="st0" d="M46.9,17.3c0,.2.2.3.4.3l1.4-.2c.2,0,.3-.2.3-.4s-.2-.3-.4-.3l-1.4.2c-.2,0-.3.2-.3.4ZM47.1,17c0-.6-.4-.6-.5-.5-.6.2,0,1.2,0,1.2-2-.9,0-3,.7-1.7,0,.1-.7-1,.2-2.7,1.3,1.5.8,2.7.8,2.6.5-1.5,2.8,0,1.1,1.5,0,0,.3-1.1-.3-1.2-.2,0-.6.1-.4.6M45.5,19.7l-1.5.2"/>
    <path class="st3" d="M43.8,15.1c-1.8-4.1.8-5.1,1.9-5.1,2.2,0,2.1,1.4,4.9,1.5"/>
    <path class="st0" d="M48.6,17.4c.3.4.9.6,1.5.5.9,0,1.6-.8,1.6-1.6M44.1,17.4c.2.6.9,1.1,1.7,1.1s1.3-.4,1.5-.9M51.6,14.1s0-1.2-.2-2.2c0-1-.7-2.2-.7-2.2h-.8s.5,1.1.8,2.2c.2.8.3,2.2.3,2.2M50.1,10.3c-2.3,0-1.9-1.2-4.5-1.3-1.7,0-5,1.1-2.8,6.4"/>
    <path class="st3" d="M44.4,20.4v.5"/>
    <path class="st0" d="M44,16.8c.4-.1,1-1.3,1-1.3l.7,2.4s-1.2-.6-1.6-.5M43.9,16.8c-.2-.5.7-2,.7-2l-2,.6"/>
    <path class="st1" d="M52.2,18.2l-.3-.9c0,.5-.7.9-1.6,1.1-.9.2-1.8,0-2-.5l-.2.7-.4-.6c0,.4-.8.8-1.7.8s-1.6-.2-1.7-.5l-.2.7"/>
    <path class="st0" d="M44,20l.4.6,1.1-.8-1.3-.5s-.2.7-.2.7ZM47.3,19.6c0,.3.5.5,1,.5s.9-.3.9-.6-.5-.5-1-.5-.9.3-.9.6Z"/>
    <path d="M44,2.7c0-.3.4-.5.3-1v-.5c0-.1,0-.5.2-.7,0,0,0-.4,0-.3,0,0,.2.4.2.6,0,.3,0,.8,0,1s-.4.6-.4.8"/>
  </g>
  <path d="M42.7,3c0,0,.3-.3.3-.8s0-.7,0-1V.2S43.1-.2,43.1,0s0,.7.3,1,0,.7,0,.9c0,.2-.3.5-.4,1"/>
  <g>
    <path d="M41.4,3.7c0-.2,0-1.7,0-2.1,0-.1-.7-.7-.7-.8,0,0,0-.1,0-.2h.3c.2,0,.9.1,1.2.8v.9c0,0,0,.8,0,1.1,0,0,0,.3,0,.4"/>
    <path d="M39.9,4.9c0,.3,0-1.5,0-1.9s0-.7-.2-.7c0-.2,0-.4-.4-.5-.2-.1-.3-.3-.4-.4h.4s.9,0,1.2.9v1.2s0,1.1,0,1.3c0,0-.3,0-.4.2"/>
    <path d="M39.2,5.8c0,0-.3-1.2-.3-1.4,0-.7-.2-2.5-1.8-2.3-.4,0-.7.4-.6.5.2,0,0-.3.7,0,.2,0,1,1,1.2,1.9,0,0,.3,1.2.3,1.4"/>
    <path d="M38,8.5c0-.2-.3-.5-.4-1-.2-.5-.5-1.1-.7-1.2-.5-.4-.7-1.6-1.4-1.7-.2,0-.7,0-.5,0,0,0,.6-.6,1.6,0,.2,0,1.3,1.1,1.4,2.5,0,0,0,.9.4,1.1"/>
    <path d="M45.6,2.6c.6-.4.7-.9.6-1.1,0-.2-.2-.5-.3-.7,0,0-.2,0-.2.2s-.2.5,0,.9c0,0-.4.4-.4.6"/>
    <path d="M44,22.3c0,0-.2-.2-.3-.3-1.3-1.3-3.3-5.3-3.8-5.4-.7-.2-.7-.6-.7-.6v-.2s.4-.4.5-.4c.2,0,.3,0,.2-.1-.4-.4-.9-2.3-1.1-2.4-.7-.4-.6-1-.6-1,0-.1.3-.2.5-.3h.2s.2.2.2,0c-.3-1.4,0-2.4-.2-2.4-.8-.2-.7-.5-.7-.7v-.3c0-.2.2-.2.3-.2.4,0,.5.2.6.2,0,0,.2.1.2,0v-1s0-.5,0-.5c-.3,0-.3-.5-.3-.6v-.3s.2,0,.3,0c.3,0,.3.6.3.7h0c0,0,0,0,.2,0,0-.2.3-.9.3-1-.2-.4-.2-.9,0-.9h.4c.2,0,0,.4,0,.4h0c0-.3.6-.6.6-.7v-.8s.4-.2.5,0v.5c.2,0,.6-.4.7-.5,0,0,0-.4,0-.6,0-.3.3-.2.5-.2s0,.4,0,.5.3,0,.5,0c.2,0,.2-.3.3-.5,0-.2.3,0,.5,0s0,.3,0,.4.4,0,.6-.2c.2,0,.3-.3.3-.4s0-.2.4,0c.3,0,0,.3,0,.3,0,0,.5,0,.6,0,0,0,.2-.3.4-.2.2,0,0,.3,0,.3,1,0,1.2.5.9.3-.7-.2-2.2,0-2.5,0-9.2,2.6-4.1,13.5-.3,17.7,0,0-.3,0-.3.2s-.4.6-.3.8c0,.2,0,.4,0,.3"/>
    <path d="M45.5,2.6h0"/>
    <path d="M33.5,15.7h0s0,.3.2.6c-.2-.4-.2-.5-.2-.6M34.6,16v.5-.5M34.6,15.7v-.3.3M34.8,14.8h0v.2h0M34.9,18.3h-.3.3M38.7,13.6h-.7s-.5-.1-.8,0c-.2.1-.7.4-.9,1.7,0,.1-.3.1-.8.8h0c.2-.3.8-.8.8-.8,0,.5-.3,1.1-.3,1.1,0,.1,0,.2,0,.1.2-.1.7-.6,1.1-.7,0,0,0,.3-.2.3-.3.3-.6,1.4-.6,1.5,0,.8.5.6.5.6.3-.2.6-.7.6-1.7,0-1.6.5-2.7.6-2.6.3.2.8,1,1.2,1.6l.3-.3c0-.1-.2-1.5-.8-1.7M39.1,14.9c-.2,0-.9-.8-1.1-.9-.2-.1.4-.4.5-.4.5,0,.6.6.6.8v.6M34,18.1c0,.2.2.3.4.3h0c-.2,0-.4-.2-.4-.3M36.1,18.5h0,.5-.4"/>
    <path d="M34.5,12.4s0,.2.2.2c0,0-.2,0-.2-.2M35.5,12.5h-.7.7M37.6,9c0,.1.2.2.2.3,0,0,.5,1.7.3,1.7-.4-.2-1.1-.9-1.2-1h0c0,0,0,.4.5.9,0,.2.6.7.7.8l.6-.2c0-.1-.3-1.8-1-2.5M36.7,9.7c0,0,0-.7.4-.9h.2-.9s-.3-.2-.6,0c-.3.3-.8.8-.9,1.7,0,.2,0,.7-.2.4h0c.2.3.4.6.4.7,0-.2,0-.8,0-.9,0,0,.2-.5.2-.4,0,0,0,.3.2.5s.3.9.3.7.4-.4.4-.5,0-.4.2-.4c0,0,0,.5,0,.7,0,.5-.3.7-.4.9,0,.4.4.2.4.3h-.2c0,0,.3-.1.4-.4.2-.5,0-2.1,0-2.4h0M36.1,12.5h0M36.1,12.5h-.2,0"/>
    <path d="M44,2.8c0-.3.4-.5.3-1v-.5c0-.3.2-1,.3-.9,0,0,.2.4.2.6,0,.3,0,.8,0,1s-.4.6-.4.8"/>
    <path d="M39.2,5.8c0,0-.3-1.2-.3-1.4,0-.7-.2-2.5-1.8-2.3-.4,0-.7.4-.6.5.2,0,.3-.3.7,0,1.2,1,1.5,3.1,1.5,3.4"/>
    <path d="M38,8.5c0-.2-.2-.5-.4-1s-.5-1.1-.7-1.2c-.5-.4-.7-1.6-1.4-1.7-.2,0-.7,0-.5,0,0,0,.6-.6,1.6,0,.2,0,1.3,1.1,1.4,2.5,0,0,0,.9.4,1.1"/>
    <path class="st0" d="M35.4,18.3v.9c0,.1.4,1.5,0,1.9,0,0-.5.2-.3-.4M35.1,18.3s0,1.2-.3,1.2M35.6,18.3s0,1,.3,1.1M36,18.5s-.2.8.3.9M34.4,18.4c0,.2,0,.8-.4.8M34.7,18.4c0,.2,0,1-.4,1M35.3,12.5s0,.3,0,.4c0,0,0,.4,0,.5v.7c0,.2.2,1,0,.9,0,0,0-.2,0-.3M34.8,12.6v.7c0,.1,0,.2-.2.2M35.1,12.5v.7c0,.1,0,.2-.2.2M35.7,12.5v.3c0,.1,0,.3,0,.5q0,.2-.2.2M34.6,12.5v.8h-.2M36,12.5v.2s.2.5.2.6-.2.1-.2.1M38,14c.3.2.9,1,1.2.9M39,13.9c.2.5,0,1.5.2,1.7M38.5,13.6c-.4,0-.6.3-.8.9M36.9,9.8c.2.4.9,1.2,1.3,1.2M37.8,9.2c.2.4.4,1,.4,2.5M37.2,8.8c0,0-.7.2-.5,1.2M36.5,12.3c-.2.2-.6,0-.4-.3.2-.3.5-.6.3-1.5,0-.2-.2.2-.2.4s-.4.2-.4.6,0-.5-.2-.7c0,0-.3-.4-.3-.6s0,.4-.2.5c0,.1,0,.6,0,1,0,.1-.2-.5-.4-.8M36.7,18.3c-.5.2-.6-.1-.6-.6s.3-1.3.5-1.5c.6-.5,0-.4-.3,0-.3.2-.8.7-.6.4s.4-.8.4-1.2M39.5,15.4c0-.1-.3-1.5-.8-1.8h-.7s-.5-.1-.8,0c-.2.1-.6.4-.9,1.7,0,.1-.3,0-.8.8,0,0,0,.3-.2,0,0,0-.4-1.4-.5-1.3,0,0-.2.6-.2,1v.8c0,.2,0,0-.6-.6,0-.1-.6-.5-.4-.2,0,.1.3.7.4.8,0,.1,0,.4,0,.5,0,.4-.3,1.2.3,1.3.5,0,.4-.1,1,0,.8,0,.7.3,1.1.2,0,0,.9-.3,1-1.8,0-1.6.5-2.7.6-2.6.3.2.9,1,1.3,1.7M38.7,11.7c0-.1-.6-3-1.7-2.9h-.7s-.3-.2-.6,0c-.3.3-.8.8-.9,1.7,0,.2,0,.7-.2.4,0-.1-.8-.7-.5-.3.2.3.2.5.2.8s0,1,.4,1.1c.6,0,.8-.1,1.4,0,0,0,.4,0,.5-.4.2-.5,0-2.1,0-2.4s.2,0,.3.1c0,.1,0,.5.5,1.1,0,.2.7.9.9,1"/>
    <path d="M45.5,2.6h0"/>
    <path d="M45.6,2.6c.6-.4.7-.9.6-1.1,0-.2-.2-.5-.3-.7,0,0-.2,0-.2.2s-.2.5,0,.9c0,0-.4.4-.4.6"/>
    <path class="st0" d="M52.2,18.2l-.3-.9c0,.5-.7.9-1.6,1.1-.9.2-1.8,0-2-.5l-.2.7-.4-.6c0,.4-.8.8-1.7.8s-1.6-.2-1.7-.5l-.2.7"/>
    <path class="st3" d="M49.7,9.9c.3-.3.4-.7,0-1-.3-.3-.7-.4-1,0-.3.3-.4.7,0,1,.3.3.7.4,1,0ZM49.7,9.9c.3-.3.4-.7,0-1-.3-.3-.7-.4-1,0-.3.3-.4.7,0,1,.3.3.7.4,1,0ZM48.2,9.1c.3-.3.4-.7,0-1-.3-.3-.7-.4-1,0-.3.3-.4.7,0,1,.3.3.7.4,1,0ZM48.2,9.1c.3-.3.4-.7,0-1-.3-.3-.7-.4-1,0-.3.3-.4.7,0,1,.3.3.7.4,1,0ZM46.6,8.8c.3-.3.4-.7,0-1-.3-.3-.7-.4-1,0-.3.3-.4.7,0,1,.3.3.7.4,1,0ZM46.6,8.8c.3-.3.4-.7,0-1-.3-.3-.7-.4-1,0-.3.3-.4.7,0,1,.3.3.7.4,1,0ZM45,8.9c.3-.3.4-.7,0-1-.3-.3-.7-.4-1,0-.3.3-.4.7,0,1,.3.3.7.4,1,0ZM45,8.9c.3-.3.4-.7,0-1-.3-.3-.7-.4-1,0-.3.3-.4.7,0,1,.3.3.7.4,1,0ZM43.5,9.5c.3-.3.4-.7,0-1-.3-.3-.7-.4-1,0-.3.3-.4.7,0,1,.3.3.7.4,1,0ZM43.5,9.5c.3-.3.4-.7,0-1-.3-.3-.7-.4-1,0-.3.3-.4.7,0,1,.3.3.7.4,1,0ZM42.3,10.7c.3-.3.4-.7,0-1-.3-.3-.7-.4-1,0-.3.3-.4.7,0,1,.3.3.7.4,1,0ZM42.3,10.7c.3-.3.4-.7,0-1-.3-.3-.7-.4-1,0-.3.3-.4.7,0,1,.3.3.7.4,1,0ZM41.8,12.2c.3-.3.4-.7,0-1-.3-.3-.7-.4-1,0-.3.3-.4.7,0,1,.3.3.7.4,1,0ZM41.8,12.2c.3-.3.4-.7,0-1-.3-.3-.7-.4-1,0-.3.3-.4.7,0,1,.3.3.7.4,1,0ZM41.9,13.9c.3-.3.4-.7,0-1-.3-.3-.7-.4-1,0-.3.3-.4.7,0,1,.3.3.7.4,1,0ZM41.9,13.9c.3-.3.4-.7,0-1-.3-.3-.7-.4-1,0-.3.3-.4.7,0,1,.3.3.7.4,1,0ZM42.3,15.5c.3-.3.4-.7,0-1-.3-.3-.7-.4-1,0-.3.3-.4.7,0,1,.3.3.7.4,1,0ZM42.3,15.5c.3-.3.4-.7,0-1-.3-.3-.7-.4-1,0-.3.3-.4.7,0,1,.3.3.7.4,1,0Z"/>
    <path d="M41.7,14c.2-.1.4-.7.5-.4s.4,1,0,.8c-.3-.2-.6-.3-.6-.3"/>
    <path d="M41.5,12.4c.2,0,.6-.5.6-.3s.2,1,0,.8-.6-.4-.5-.5"/>
    <path d="M41.6,10.8c.3,0,.8-.2.7,0,0,0-.2.8-.3.6,0-.2-.5-.6-.4-.6"/>
    <path d="M42.5,9.5c.2,0,.8.1.7.2,0,0-.7.7-.6.5s-.2-.7,0-.7"/>
    <path d="M43.8,8.7c.2,0,.4.4.6.4s-.6.3-.8.4c-.2,0,0-.8.2-.8"/>
    <path d="M44.9,8.9c.2-.1.4-.7.5-.5s.5.6.2.6-.9,0-.8,0"/>
    <path d="M46.3,9c.2,0,.7-.7.7-.5s.3.7,0,.6c-.2,0-1-.2-.8-.2"/>
    <path d="M47.7,9.4c.2,0,.9-.5.8-.3,0,.2,0,.9,0,.8-.2,0-.9-.5-.8-.5"/>
    <path d="M49.4,10.1c.2,0,.5-.4.6-.2s.2.4,0,.4-.7,0-.6-.1"/>
    <path d="M54.6,9.8c.2,0,.6.3.4.3s-.7.2-.6,0c0-.1.2-.4.3-.4"/>
    <path d="M56,9c.3.2.9.3.6.5-.2.1-.9.6-.9.4s.2-.9.2-.9"/>
    <path d="M57.3,9.1c0-.2,0-.9.3-.7s.6.5.3.6c-.3,0-.6.2-.6,0"/>
    <path d="M58.6,8.9c.2,0,.5-.7.6-.5,0,.3.4.5.2.5s-.9,0-.7,0"/>
    <path d="M60,9.1c.2,0,.7-.6.7-.2s.2.6,0,.5-.8-.3-.7-.3"/>
    <path d="M61.2,9.7c.2,0,.8-.3.8,0s0,.7-.2.5-.6-.5-.5-.5"/>
    <path d="M62.1,10.7c.2,0,.8.1.6.3s-.4.6-.4.4-.3-.8-.2-.7"/>
    <path d="M62.4,12.1c.2.1.8.3.5.5-.3.1-.6.5-.5.3v-.8"/>
    <path d="M62.3,13.5c0,.2.6.6.4.6s-.7.5-.7.2.2-.9.2-.9"/>
  </g>
  <g>
    <path d="M60.4,2.8c0-.3-.4-.5-.3-1v-.5c0-.1,0-.5-.2-.7,0,0,0-.4-.2-.3,0,0-.2.4-.2.6,0,.3,0,.8,0,1s.4.6.4.8"/>
    <path d="M61.8,3c0,0-.3-.3-.3-.8s0-.7,0-1V.2S61.4-.2,61.4,0s0,.7-.3,1,0,.7,0,.9c0,.2.3.5.4,1"/>
  </g>
  <g>
    <path d="M63,3.6c0-.2,0-1.7,0-2.1,0-.1.7-.7.7-.8,0,0,0-.1,0-.2h-.3c-.2,0-.9.1-1.2.8v.9c0,0,0,.8,0,1.1,0,0,0,.3,0,.4"/>
    <path d="M64.6,4.8c0,.3,0-1.5,0-1.9s0-.7.2-.7c0-.2,0-.4.4-.5.2-.1.3-.3.4-.4h-.4s-.9,0-1.2.9v1.2s0,1.1.1,1.3c0,0,.3,0,.4.2"/>
    <path d="M65.3,5.8c0,0,.3-1.2.3-1.4,0-.7.2-2.5,1.8-2.3.4,0,.7.4.6.5-.2,0,0-.3-.7,0-.2,0-1,1-1.2,1.9,0,0-.3,1.3-.3,1.5"/>
    <path d="M66.4,8.5c0-.2.3-.5.4-1,.2-.5.5-1.1.7-1.2.5-.4.7-1.6,1.4-1.7.2,0,.7,0,.5,0,0,0-.6-.6-1.6,0-.2,0-1.3,1.1-1.4,2.5,0,0,0,.9-.4,1.1"/>
    <path d="M58.9,2.6c-.6-.4-.7-.9-.6-1.1,0-.2.2-.5.3-.7,0,0,.2,0,.2.2s.2.5,0,.9c0,0,.4.4.4.6"/>
    <path d="M69.9,15.7v-.3.3M69.8,18.4h-.3.3M68.2,15.3c-.2-1.3-.7-1.6-.9-1.7-.4-.2-.8,0-.8,0h-.7c-.6.3-.7,1.6-.8,1.7l.3.3c.4-.6.9-1.4,1.2-1.6,0,0,.6,1,.6,2.6s.4,1.5.6,1.7c0,0,.5.2.5-.6s-.2-1.2-.6-1.5c0,0-.3-.4-.2-.3.5,0,.9.6,1.1.7h0c0-.1-.3-.7-.3-1.2,0,0,.6.5.8.8h0c-.5-.7-.8-.7-.8-.8M66.5,14c-.2.1-.9.9-1.1.9v-.6c0-.2,0-.8.6-.8s.7.3.5.4M69.7,14.9h0c0,.1,0,0,0,0h0M69.9,16.6v-.5.5M70,18.4h0c.2,0,.3-.1.4-.3,0,.2-.2.3-.4.3M70.9,15.7h0s0,.2-.2.6c0-.2.2-.5.2-.6M67.9,18.4h.5-.5"/>
    <path d="M69.2,10.3s0,.4.2.4c0,0,.2.7,0,.9,0-.1.2-.4.4-.7h0c-.2.3-.2-.3-.2-.4,0-.9-.5-1.4-.9-1.7-.3-.3-.6-.1-.6,0h-.9.2c.3.2.5.8.4.9h0c0,.3-.2,1.9,0,2.4,0,.2.2.3.4.4h-.2s.5.2.4-.3c0-.2-.4-.4-.4-.9s0-.7,0-.7c0,0,.2.3.2.4s.4.3.4.5,0-.5.3-.7c0-.1.2-.4.2-.5M66.3,11c0,0,.3-1.6.3-1.7,0,0,0-.2.2-.3-.7.6-1,2.4-1,2.5l.6.3c0-.1.6-.7.7-.8.4-.5.4-.9.5-1h0c0,.2-.8.9-1.2,1.1M68.3,12.5h0M68.3,12.5h0-.2M69.7,12.5c0,0,.2,0,.2-.2,0,0,0,.1-.2.2M69.7,12.5h-.7.7"/>
    <path d="M60.4,22.3c0,0,.2-.2.3-.3,1.3-1.3,3.3-5.3,3.8-5.4.7-.2.7-.6.7-.6v-.2s-.4-.4-.5-.4c-.2,0-.3,0-.2-.1.4-.4.9-2.3,1.1-2.4.7-.4.6-1,.6-1,0-.1-.3-.2-.5-.3h-.2s-.2.2-.2,0c.3-1.4,0-2.4.2-2.4.8-.2.7-.5.7-.7,0,0,0-.6-.4-.6s-.5.2-.5.2c0,0-.2.1-.2,0v-1s0-.5,0-.5c.3,0,.3-.5.3-.6v-.3s-.2,0-.3,0c-.3,0-.3.6-.3.7h0c0,0,0,0-.2,0,0-.2-.3-.9-.3-1,.2-.4.2-.6.2-.7s0-.5-.5-.3c0,0-.2.4-.2.4h0c0-.3-.6-.6-.6-.7v-.7c0,0-.4-.2-.5,0v.5c-.2,0-.6-.4-.7-.5,0,0,0-.4,0-.6,0-.3-.3-.2-.5-.2s0,.4,0,.5-.3,0-.5,0c-.2,0-.2-.3-.3-.5,0-.2-.3,0-.5,0s0,.3,0,.4-.4,0-.6-.2c-.2,0-.3-.3-.3-.4s0-.2-.4,0c-.3,0,0,.3,0,.3,0,0-.5,0-.6,0,0,0-.2-.3-.4-.2-.2,0,0,.3,0,.3-1,0-1.2.5-.9.3.7-.2,2.2,0,2.5,0,9.2,2.6,4.1,13.6.3,17.7h0s.3,0,.3.3c0,0,.2.4,0,.8h0"/>
    <path class="st0" d="M69,18.3v.9c0,.1-.4,1.5,0,1.9,0,0,.5.2.3-.4M69.3,18.3s0,1.2.3,1.2M68.8,18.3s0,1-.3,1.1M68.4,18.5s.2.8-.3.9M70.1,18.4c0,.2,0,.8.4.8M69.7,18.4c0,.2,0,1,.4,1M69.1,12.5s0,.3,0,.4c0,0,0,.4,0,.5v.7c0,.2-.2,1,0,.9,0,0,0-.2,0-.3M69.6,12.6v.7c0,.1,0,.2.2.2M69.4,12.5v.7c0,.1,0,.2.2.2M68.7,12.5v.3s0,.3,0,.5q0,.2.2.2M69.8,12.5v.8h.2M68.4,12.5v.2s-.2.5-.2.6.2.1.2.1M66.5,14c-.3.2-.9,1-1.2.9M65.4,13.9c-.2.5,0,1.5-.2,1.7M65.9,13.6c.4,0,.6.3.8.9M67.6,9.8c-.2.4-.9,1.2-1.3,1.2M66.7,9.2c-.2.4-.4,1-.4,2.5M67.3,8.8c0,0,.7.2.5,1.2M67.9,12.3c.2.2.6,0,.4-.3s-.5-.6-.3-1.5c0-.2.2.2.2.4s.4.2.4.6,0-.5.2-.7c0,0,.3-.4.3-.6s0,.4.2.5c0,.1,0,.6,0,1,0,.1.2-.5.4-.8M67.7,18.3c.5.2.6-.1.6-.6s-.3-1.3-.5-1.5c-.6-.5,0-.4.3,0,.3.2.8.7.6.4-.2-.3-.4-.8-.4-1.2M64.9,15.5c.2-.1.3-1.6.9-1.9h.7s.5-.1.8,0c.2.1.7.4.9,1.7,0,.1.3,0,.8.8,0,0,0,.3.2,0,0,0,.4-1.4.5-1.2,0,0,.2.6.2,1v.8c0,.2,0,0,.6-.6,0-.1.6-.5.4-.2,0,0-.3.7-.4.8,0,.1,0,.4,0,.5,0,.4.3,1.2-.3,1.3-.5,0-.4-.1-1,0-.8,0-.7.3-1.1.2,0,0-.9-.3-1-1.8,0-1.6-.5-2.7-.6-2.6-.3.2-.9,1.1-1.3,1.7M65.8,11.7c0-.1.6-3.1,1.7-2.9h.7s.3-.2.6,0c.3.3.8.8.9,1.7,0,.2,0,.7.2.4,0-.1.8-.7.5-.3-.2.3-.2.5-.2.8s0,1-.4,1.1c-.6,0-.8-.1-1.4,0,0,0-.4,0-.5-.4-.2-.5,0-2.1,0-2.4s-.2,0-.3.1c0,.1,0,.5-.5,1.1,0,.2-.7.8-.8.9"/>
    <path d="M55.2,19.5c0,.3.4.5.9.6.5,0,1-.2,1-.4,0-.3-.4-.5-.9-.6-.5,0-1,.2-1,.4"/>
    <rect x="50.9" y="18.7" width="2.6" height="1"/>
    <polygon points="60.4 20 60 20.6 58.9 19.7 60.2 19.2 60.4 20"/>
    <path class="st0" d="M57.6,17.3c0,.2-.2.3-.4.3l-1.4-.2c-.2,0-.3-.2-.3-.4s.2-.3.4-.3l1.4.2c.2,0,.3.2.3.4ZM57.3,17c0-.6.4-.6.5-.5.6.2,0,1.2,0,1.2,2-.9,0-3-.7-1.7,0,.1.7-1-.2-2.7-1.3,1.5-.8,2.7-.8,2.6-.5-1.5-2.8,0-1.1,1.5,0,0-.3-1.1.3-1.2.2,0,.6.1.4.6M58.9,19.7l1.5.2"/>
    <path class="st3" d="M60.6,15.1c1.8-4.1-.8-5.1-1.9-5.1-2.2,0-2.1,1.4-4.9,1.5"/>
    <path class="st0" d="M54.3,10.3c2.3,0,1.9-1.2,4.5-1.3,1.7,0,5,1.1,2.8,6.4"/>
    <path class="st3" d="M52.7,7.6v1.1h1.1M51.8,7.6v1.1h-1.1M50.7,9.4h3M51.8,10.6c-.6-.2-1.1-.8-1.1-1.5s.7-1.6,1.6-1.6,1.6.7,1.6,1.6-.5,1.3-1.1,1.5M52.8,6.1c.5.2,1.2.6,1.2.6v-1.8s-.7.5-1.2.6M51.7,6.1c-.5.2-1.2.6-1.2.6v-1.8s.7.5,1.2.6M53.5,8.2s-.7-1.1-.9-1.8M51.9,6.4c-.2.7-.9,1.8-.9,1.8M52,5.3c-.2-.5-.6-1.2-.6-1.2h1.8s-.5.7-.6,1.2"/>
    <path class="st0" d="M60.4,20l-.4.6-1.1-.8,1.3-.5s.2.7.2.7ZM53.5,19.6h-2.6v-1h2.6v1ZM57.1,19.6c0,.3-.5.5-1,.5s-.9-.3-.9-.6.5-.5,1-.5.9.3.9.6ZM60.5,16.8h0c-.4-.1-1-1.3-1-1.3l-.7,2.4s1.2-.6,1.6-.5h0M60.5,16.8c.2-.5-.7-2-.7-2l2,.6c-.2.4-.4.9-.6,1.3M60.7,17.8c-.2.5-.4,1-.5,1.5M55.8,17.4c-.3.4-.9.6-1.5.5-.9,0-1.6-.8-1.6-1.6M60.3,17.4c-.2.6-.9,1.1-1.7,1.1s-1.3-.4-1.5-.9M52.8,14.1s0-1.2.2-2.2c0-1,.7-2.2.7-2.2h.8s-.5,1.1-.8,2.2c-.2.8-.3,2.2-.3,2.2M51.8,15.8c-.4,0-1.4-.9-1.4-.9v2.5s.9-.9,1.4-.9M52.7,15.8c.4,0,1.4-.9,1.4-.9v2.5s-.9-.9-1.4-.9M51.8,15.7c0-.6-1.2-1.6-1.2-1.6h3.3s-1.1,1-1.2,1.6"/>
    <path class="st1" d="M44.1,19l.2-.7c.2.4.9.6,1.7.5.9,0,1.6-.4,1.7-.8l.4.6.2-.7c.2.5,1,.7,2,.5.9-.2,1.5-.6,1.6-1.1l.3.9.3-.9c0,.5.7.9,1.6,1.1.9.2,1.8,0,2-.5l.2.7.4-.6c0,.4.8.8,1.7.8s1.6-.2,1.7-.5l.2.7"/>
    <path class="st3" d="M54.7,9.9c-.3-.3-.4-.7,0-1,.3-.3.7-.4,1,0,.3.3.4.7,0,1-.3.3-.7.4-1,0ZM54.7,9.9c-.3-.3-.4-.7,0-1,.3-.3.7-.4,1,0,.3.3.4.7,0,1-.3.3-.7.4-1,0ZM56.2,9.1c-.3-.3-.4-.7,0-1,.3-.3.7-.4,1,0,.3.3.4.7,0,1s-.7.4-1,0ZM56.2,9.1c-.3-.3-.4-.7,0-1,.3-.3.7-.4,1,0,.3.3.4.7,0,1s-.7.4-1,0ZM59.4,8.9c-.3-.3-.4-.7,0-1,.3-.3.7-.4,1,0,.3.3.4.7,0,1-.3.3-.7.4-1,0ZM59.4,8.9c-.3-.3-.4-.7,0-1,.3-.3.7-.4,1,0,.3.3.4.7,0,1-.3.3-.7.4-1,0ZM61,9.5c-.3-.3-.4-.7,0-1,.3-.3.7-.4,1,0,.3.3.4.7,0,1-.3.3-.7.4-1,0ZM61,9.5c-.3-.3-.4-.7,0-1,.3-.3.7-.4,1,0,.3.3.4.7,0,1-.3.3-.7.4-1,0ZM62.1,10.7c-.3-.3-.4-.7,0-1,.3-.3.7-.4,1,0,.3.3.4.7,0,1-.3.3-.7.4-1,0ZM62.1,10.7c-.3-.3-.4-.7,0-1,.3-.3.7-.4,1,0,.3.3.4.7,0,1-.3.3-.7.4-1,0ZM62.6,12.2c-.3-.3-.4-.7,0-1,.3-.3.7-.4,1,0,.3.3.4.7,0,1-.3.3-.7.4-1,0ZM62.6,12.2c-.3-.3-.4-.7,0-1,.3-.3.7-.4,1,0,.3.3.4.7,0,1-.3.3-.7.4-1,0ZM62.6,13.9c-.3-.3-.4-.7,0-1,.3-.3.7-.4,1,0,.3.3.4.7,0,1-.3.3-.7.4-1,0ZM62.6,13.9c-.3-.3-.4-.7,0-1,.3-.3.7-.4,1,0,.3.3.4.7,0,1-.3.3-.7.4-1,0ZM62.2,15.5c-.3-.3-.4-.7,0-1,.3-.3.7-.4,1,0,.3.3.4.7,0,1-.3.3-.7.4-1,0ZM62.2,15.5c-.3-.3-.4-.7,0-1,.3-.3.7-.4,1,0,.3.3.4.7,0,1-.3.3-.7.4-1,0ZM51.9,6.3c-.2-.2-.3-.6,0-.8.2-.2.6-.3.8,0,.2.2.3.6,0,.8-.2.2-.6.3-.8,0ZM51.9,6.3c-.2-.2-.3-.6,0-.8.2-.2.6-.3.8,0,.2.2.3.6,0,.8-.2.2-.6.3-.8,0Z"/>
    <path class="st0" d="M51.9,16.5c-.2-.2-.3-.6,0-.8.2-.2.6-.3.8,0,.2.2.3.6,0,.8-.2.2-.6.3-.8,0ZM51.9,16.5c-.2-.2-.3-.6,0-.8.2-.2.6-.3.8,0,.2.2.3.6,0,.8-.2.2-.6.3-.8,0ZM51.9,13.9c-.2-.2-.3-.6,0-.8s.6-.3.8,0c.2.2.3.6,0,.8-.2.2-.6.3-.8,0ZM51.9,13.9c-.2-.2-.3-.6,0-.8s.6-.3.8,0c.2.2.3.6,0,.8-.2.2-.6.3-.8,0ZM51.8,13c-.2-.2-.2-.5,0-.8.2-.2.6-.3.8,0,.2.2.3.6,0,.8h0M51.8,12.2c-.2-.2-.2-.5,0-.8.2-.2.6-.3.8,0,.2.2.3.6,0,.8h0M51.8,11.4c-.2-.2-.2-.6,0-.8s.6-.3.8,0c.2.2.3.6,0,.8h0M51.8,10.5c-.2-.2-.2-.5,0-.8.2-.2.6-.3.8,0,.2.2.3.6,0,.8h0M60.3,17.2c0-.3.3-.6.5-.6s.4.3.4.6-.3.6-.5.6-.4-.3-.4-.6ZM60.3,17.2c0-.3.3-.6.5-.6s.4.3.4.6-.3.6-.5.6-.4-.3-.4-.6Z"/>
    <path class="st3" d="M57.8,8.8c-.3-.3-.4-.7,0-1,.3-.3.7-.4,1,0,.3.3.4.7,0,1-.3.3-.7.4-1,0ZM57.8,8.8c-.3-.3-.4-.7,0-1,.3-.3.7-.4,1,0,.3.3.4.7,0,1-.3.3-.7.4-1,0Z"/>
    <path class="st0" d="M44.2,22.4c-.3-.3-.3-.4-.2-.8,0-.2.4-.6.6-.6h.4c0,0,.2-.2.6,0h.2s.4-.3.8-.2h.2s.3-.3.8-.1h.2s.3-.2.7-.1h.2s.3-.2.7-.1h.2s.2-.2.8-.1h.2s.3-.2.8,0h.2s.3-.2.7,0h.2s.2-.2.8,0h.2s.4-.2.8,0h0s.4-.2.8,0h.2s.4-.2.8,0h0s.3-.2.7,0c0,0,0,0,.2.1,0,0,.3-.2.8,0h.2s.4-.2.8,0h.2s.4-.2.8,0c0,0,0,0,.2.1,0,0,.2,0,.3.1,0,0,.4.5.2,1.2"/>
    <path d="M57.8,22.6s.6-.5,1.5-.2c0,0,.5.1.7,0,0,0,1-.3,1.5,0,0,0,.9.6.9,1.5v.5s-3.4-.3-3.5-.3c0,0-.4-.7-.4-.8,0,0-.4-.6-.6-.8h0"/>
    <path d="M51.2,22.4s.7-.4,1.6,0h.5s.8-.2,1.5.2c0,0,.4.3.7.8,0,0,.3.6.4.6h-3.7s0-.3-.2-.5c0,0-.2-.6-.5-.9h-.2"/>
    <path d="M44.5,22.6s.6-.4,1.6-.2h.4s.8-.2,1.3,0c0,0,.5.3.8.9l.3.6-3.6.2c0-.1-.2-.6-.5-1.1,0,0-.2-.3-.4-.4h0"/>
    <path d="M45.4,24.1s3-.2,3.6-.1c0,0,.3.6.9.9,0,0-.6.4-1.5.2,0,0-.6-.2-1,0,0,0-.7.3-1.3-.1,0,0-.4-.4-.5-.6v-.2"/>
    <path d="M52.1,23.9h3.7s.3.5.8.9c0,0-.6.5-1.5.2,0,0-.3-.2-1,0,0,0-1,.2-1.5-.4,0,0-.2-.3-.4-.6h0"/>
    <path d="M58.9,24.2s2.3.2,3.5.3c0,0-.2.8-.9.7,0,0-.4-.2-1.1,0,0,0-.4.2-.9-.2,0,0-.3-.3-.4-.5v-.2"/>
    <path class="st3" d="M54.8,22.5s.6-.5,1.6,0,1-.2,1.5.2c.9.8,1.1,2.4,2.1,2.5.3,0,.7-.2,1.4,0,.8.2,1.7-1.3.3-2.6-.2-.2-.5-.5-1.6-.2h-.9c-.2,0-.9-.1-1.4.2M51.2,22.4s.6-.3,1.5,0h.7s1.2-.3,1.8.7c.5.8.9,2.2,2.2,2.1h.9c0,0,.8.2,1.2,0M47.9,22.4c0,0,.2,0,.7-.2.2,0,.6-.2,1.1,0h.6s1.2-.3,1.8,1.2c0,.1.3,1.5,1.5,1.6.6,0,1-.2,1.6,0,0,0,1,.3,1.6-.2M44.5,22.6s.6-.4,1.6-.2h.5c.5-.1,1.1-.2,1.8.6.5.6.5,1.2,1.4,1.9,0,0,.6.3,1.2,0h1.9M46.1,24.9s-.6.4-1.5.2c-.6-.1-1.2.6-2.1-.3-.9-.9-.2-2.5,1.2-2.5s.9-.1,1.5,1.5c0,.1.7,1.9,2.2,1.2,0,0,.3-.1.9,0,.5.1,1.1,0,1.5-.2"/>
    <path d="M42.6,23.2s-.3,1.1.8,1.7c0,0-.2-.1,0-1.4,0,0,.5,1,1.9,1,0,0-.3-.1-.4-.6,0,0-.5-1.1-1.1-1.5,0,0,.4.3.5.9,0,.1,0,.4,0,.4,0,0-.6-.2-1.1-.7,0,0-.2.8,0,1.1,0,0-.4-.4-.5-.9h0"/>
    <path d="M48.7,22.7c.7.2,1,.9,1.4,1.1,0,0-.4-.5-.4-1.2,0,0,.8.6,1,.7,0,0,.5.5.6.4,0,0-.4-.9-.8-1.2,0,0,.5,0,1.3,1.4,0,.1.2.4.3.4,0,0-1,0-2.1-1.2,0,0,.2.6.8,1.2,0,0-.9,0-1.6-1.1,0,0-.3-.5-.5-.7h0"/>
    <path d="M55.5,22.8c.6.2,1,.9,1.3,1.3,0,0-.3-.3-.2-1.2,0,0,.2.4.7.8,0,0,.6.5.7.4,0,0-.3-.9-.7-1.3,0,0,.4,0,1.2,1.5,0,.1.3.4.4.5,0,0-.9.2-2.1-1.3,0,0,0,.6.6,1.3,0,0-.9,0-1.5-1.2,0,0-.2-.5-.4-.7h0"/>
    <path d="M51,21.5c.6,0,.6.4,1.5.4s.8-.1.7-.1c-.3,0-.8.1-1.2-.2h1.1c-.4,0-1.2,0-1.1,0,.4-.3.8-.2,1.2-.2s-.2-.1-.7-.1c-.8,0-.9.3-1.5.4h0v-.2Z"/>
    <path d="M54.3,21.5c.6,0,.6.4,1.4.5.4,0,.8,0,.7,0-.3,0-.8,0-1.1-.3h1.1c-.4,0-1.1-.1-1.1-.2.4-.3.9-.1,1.2,0,0,0-.2-.2-.6-.2-.8,0-.9.3-1.5.3h-.1Z"/>
    <path d="M57.4,21.6c.6.1.6.4,1.4.5.4,0,.8,0,.7,0-.3,0-.8,0-1.1-.3h1.1c-.4-.1-1.1-.2-1.1-.2.4-.3.9-.1,1.2,0,0,0-.2-.2-.6-.2-.8,0-.9.2-1.5.2h-.1Z"/>
    <path d="M47.8,21.6c.6,0,.7.3,1.5.3s.7-.2.6-.2c-.3,0-.7.2-1.2,0,0,0,.7,0,1.1-.2-.4,0-1.2,0-1.1,0,.4-.3.8-.2,1.1-.3,0,0-.2-.1-.7,0-.8,0-.8.4-1.4.5h.1Z"/>
    <path d="M44.8,21.8c.6,0,.7.3,1.5.2.4,0,.7-.2.6-.2-.3,0-.7.2-1.2,0,0,0,.7,0,1.1-.2-.4,0-1.2,0-1.1,0,.4-.3.8-.2,1.1-.3,0,0-.2-.1-.7,0-.8,0-.8.4-1.4.5h.1Z"/>
    <path class="st3" d="M42.6,15.4c.2.5.4.9.7,1.4M43.7,17.8c.2.5.4,1.1.5,1.7"/>
    <path d="M42.5,15.3c.2-.1,0-.4.3-.2.2.3-.2.4-.3.3h0"/>
    <path d="M62,15.3c-.2-.1,0-.4-.3-.2-.2.3.2.4.3.3h0"/>
    <path class="st0" d="M44.1,17.2c0-.3-.3-.6-.5-.6s-.4.3-.4.6.3.6.5.6.4-.3.4-.6Z"/>
    <path class="st3" d="M61.1,16.7c.2.1.2.3.2.6s-.3.6-.5.5M61.8,15.4c-.2.5-.4.9-.7,1.4M60.7,17.8c-.2.5-.4,1.1-.5,1.7M60,20.4v.7M43.3,16.7c-.2.1-.2.3-.2.6s.3.6.5.5"/>
    <path class="st0" d="M50.8,12.5c-.3-.3-1.2-.9-2.3-.7-1.4.3-1.2.3-1.3.2,0,0-1.5-.8-2.9-.5-.2,0-1,.4-1.1.6M53.6,12.5c.3-.3,1.2-.9,2.4-.7,1.4.3,1.2.3,1.3.2,0,0,1.5-.8,2.9-.5.2,0,1,.4,1.1.6M60.3,17.2c0-.3.3-.6.5-.6s.4.3.4.6-.3.6-.5.6-.4-.3-.4-.6Z"/>
  </g>
  <g>
    <g class="st4">
      <g class="st4">
        <path d="M120.3,22.9v-1.7h6.1s0,5.3,0,5.3c-.9.7-1.9,1.3-2.9,1.7s-2,.6-3,.6-2.7-.3-3.8-.9-2-1.5-2.6-2.6-.9-2.4-.9-3.8.3-2.7.9-3.9,1.4-2.1,2.5-2.7,2.4-.9,3.8-.9,2,.2,2.8.5,1.5.8,2,1.4.8,1.4,1.1,2.3l-1.7.5c-.2-.7-.5-1.3-.8-1.7s-.8-.8-1.4-1-1.2-.4-2-.4-1.6.1-2.2.4-1.1.6-1.5,1-.7.9-.9,1.4c-.4.9-.5,1.8-.5,2.9s.2,2.3.7,3.2,1.1,1.5,1.9,1.9,1.7.6,2.7.6,1.6-.2,2.4-.5,1.4-.7,1.8-1v-2.7h-4.2Z"/>
        <path d="M128.3,23.3c0-1.9.5-3.3,1.6-4.3.9-.8,2-1.2,3.3-1.2s2.6.5,3.5,1.4,1.4,2.2,1.4,3.9-.2,2.4-.6,3.1-1,1.4-1.7,1.8-1.6.6-2.5.6c-1.5,0-2.6-.5-3.5-1.4s-1.3-2.3-1.3-4ZM130.1,23.3c0,1.3.3,2.3.9,3s1.3,1,2.2,1,1.6-.3,2.2-1,.9-1.7.9-3-.3-2.3-.9-2.9-1.3-1-2.2-1-1.6.3-2.2,1-.9,1.7-.9,3Z"/>
        <path d="M143,28.5l-3.9-10.4h1.9l2.2,6.2c.2.7.5,1.4.7,2.1.2-.5.4-1.2.7-2l2.3-6.3h1.8l-3.9,10.4h-1.6Z"/>
        <path d="M157.2,25.2l1.8.2c-.3,1.1-.8,1.9-1.6,2.5s-1.8.9-3,.9-2.7-.5-3.6-1.4-1.3-2.2-1.3-3.9.4-3.1,1.3-4.1,2.1-1.4,3.5-1.4,2.5.5,3.4,1.4,1.3,2.3,1.3,4,0,.3,0,.5h-7.7c0,1.1.4,2,1,2.6s1.3.9,2.2.9,1.2-.2,1.7-.5.8-.9,1.1-1.6ZM151.4,22.3h5.8c0-.9-.3-1.5-.7-2-.6-.7-1.3-1-2.2-1s-1.5.3-2,.8-.9,1.3-.9,2.2Z"/>
        <path d="M161.2,28.5v-10.4h1.6v1.6c.4-.7.8-1.2,1.1-1.5s.7-.4,1.1-.4c.6,0,1.2.2,1.8.6l-.6,1.6c-.4-.3-.9-.4-1.3-.4s-.7.1-1,.3-.5.6-.7,1c-.2.6-.3,1.3-.3,2.1v5.4h-1.8Z"/>
        <path d="M167.9,28.5v-10.4h1.6v1.5c.8-1.1,1.9-1.7,3.3-1.7s1.2.1,1.7.3.9.5,1.2.9.4.8.5,1.3c0,.3,0,.9,0,1.7v6.4h-1.8v-6.3c0-.7,0-1.3-.2-1.6s-.4-.6-.7-.8-.8-.3-1.2-.3c-.7,0-1.4.2-1.9.7s-.8,1.4-.8,2.7v5.7h-1.8Z"/>
        <path d="M179,28.5v-10.4h1.6v1.5c.3-.5.8-.9,1.3-1.2s1.2-.5,1.8-.5,1.4.2,1.9.5.8.8,1,1.3c.8-1.2,1.9-1.8,3.2-1.8s1.8.3,2.4.9.8,1.4.8,2.6v7.1h-1.7v-6.5c0-.7,0-1.2-.2-1.5s-.3-.6-.6-.7-.7-.3-1.1-.3c-.7,0-1.3.2-1.8.7s-.7,1.3-.7,2.3v6h-1.8v-6.7c0-.8-.1-1.4-.4-1.8s-.8-.6-1.4-.6-1,.1-1.4.4-.7.6-.9,1.1-.3,1.2-.3,2.2v5.4h-1.8Z"/>
        <path d="M202.8,25.2l1.8.2c-.3,1.1-.8,1.9-1.6,2.5s-1.8.9-3,.9-2.7-.5-3.6-1.4-1.3-2.2-1.3-3.9.4-3.1,1.3-4.1,2.1-1.4,3.5-1.4,2.5.5,3.4,1.4,1.3,2.3,1.3,4,0,.3,0,.5h-7.7c0,1.1.4,2,1,2.6s1.3.9,2.2.9,1.2-.2,1.7-.5.8-.9,1.1-1.6ZM197,22.3h5.8c0-.9-.3-1.5-.7-2-.6-.7-1.3-1-2.2-1s-1.5.3-2,.8-.9,1.3-.9,2.2Z"/>
        <path d="M206.8,28.5v-10.4h1.6v1.5c.8-1.1,1.9-1.7,3.3-1.7s1.2.1,1.7.3.9.5,1.2.9.4.8.5,1.3c0,.3,0,.9,0,1.7v6.4h-1.8v-6.3c0-.7,0-1.3-.2-1.6s-.4-.6-.7-.8-.8-.3-1.2-.3c-.7,0-1.4.2-1.9.7s-.8,1.4-.8,2.7v5.7h-1.8Z"/>
        <path d="M221.7,26.9l.3,1.6c-.5.1-.9.2-1.3.2-.6,0-1.1-.1-1.5-.3s-.6-.5-.7-.8-.2-1-.2-2.1v-6h-1.3v-1.4h1.3v-2.6l1.7-1.1v3.6h1.8v1.4h-1.8v6.1c0,.5,0,.8,0,1s.2.3.3.3.3.1.6.1.5,0,.8,0Z"/>
        <path d="M228.4,23.3c0-1.9.5-3.3,1.6-4.3.9-.8,2-1.2,3.3-1.2s2.6.5,3.5,1.4,1.4,2.2,1.4,3.9-.2,2.4-.6,3.1-1,1.4-1.7,1.8-1.6.6-2.5.6c-1.5,0-2.6-.5-3.5-1.4s-1.3-2.3-1.3-4ZM230.2,23.3c0,1.3.3,2.3.9,3s1.3,1,2.2,1,1.6-.3,2.2-1,.9-1.7.9-3-.3-2.3-.9-2.9-1.3-1-2.2-1-1.6.3-2.2,1-.9,1.7-.9,3Z"/>
        <path d="M240.6,28.5v-9h-1.6v-1.4h1.6v-1.1c0-.7,0-1.2.2-1.6.2-.5.5-.8.9-1.1s1-.4,1.8-.4,1,0,1.6.2l-.3,1.5c-.4,0-.7,0-1,0-.5,0-.9.1-1.1.3s-.3.7-.3,1.3v1h2v1.4h-2v9h-1.7Z"/>
      </g>
    </g>
    <g class="st4">
      <g class="st4">
        <path d="M253.7,28.5l-3.4-14.3h3l2.2,9.8,2.6-9.8h3.4l2.5,10,2.2-10h2.9l-3.5,14.3h-3.1l-2.9-10.7-2.8,10.7h-3.1Z"/>
      </g>
      <g class="st4">
        <path d="M276.2,25.2l2.7.5c-.4,1-.9,1.8-1.7,2.3s-1.7.8-2.8.8c-1.8,0-3.1-.6-4-1.8-.7-.9-1-2.1-1-3.6s.4-3.1,1.3-4,2-1.5,3.4-1.5,2.8.5,3.7,1.5,1.3,2.6,1.3,4.7h-6.9c0,.8.2,1.4.7,1.9s1,.7,1.6.7.8-.1,1.1-.4.5-.6.7-1.1ZM276.4,22.4c0-.8-.2-1.4-.6-1.8s-.9-.6-1.4-.6-1.1.2-1.5.7-.6,1-.6,1.8h4.1Z"/>
        <path d="M280.4,25.5l2.8-.4c.1.5.4.9.7,1.2.4.3.9.4,1.5.4s1.2-.1,1.6-.4c.2-.2.4-.4.4-.7s0-.4-.2-.5c-.1-.1-.4-.3-.9-.4-2.2-.5-3.6-.9-4.2-1.3-.8-.6-1.2-1.3-1.2-2.3s.4-1.7,1.1-2.3c.7-.6,1.8-.9,3.3-.9s2.5.2,3.2.7c.7.5,1.2,1.1,1.4,2.1l-2.6.5c-.1-.4-.3-.7-.6-.9-.3-.2-.8-.3-1.3-.3s-1.2.1-1.6.3c-.2.1-.3.3-.3.6s0,.4.3.5c.2.2,1.1.4,2.6.8,1.5.3,2.5.7,3.1,1.2.6.5.9,1.2.9,2s-.4,1.8-1.2,2.5c-.8.7-2,1-3.5,1s-2.5-.3-3.4-.9c-.8-.6-1.4-1.4-1.6-2.3Z"/>
        <path d="M297.2,18.1v2.2h-1.9v4.2c0,.8,0,1.3,0,1.5,0,.1.1.3.2.3s.3.1.5.1.6,0,1.1-.3l.2,2.1c-.6.3-1.4.4-2.2.4s-.9,0-1.3-.2c-.4-.2-.7-.4-.9-.6s-.3-.6-.4-1.1c0-.3,0-1,0-1.9v-4.5h-1.3v-2.2h1.3v-2.1l2.8-1.6v3.7h1.9Z"/>
        <path d="M305.1,25.2l2.7.5c-.4,1-.9,1.8-1.7,2.3-.8.5-1.7.8-2.8.8-1.8,0-3.1-.6-4-1.8-.7-.9-1-2.1-1-3.6s.4-3.1,1.3-4,2-1.5,3.4-1.5,2.8.5,3.7,1.5c.9,1,1.3,2.6,1.3,4.7h-6.9c0,.8.2,1.4.7,1.9.4.5,1,.7,1.6.7s.8-.1,1.1-.4.5-.6.7-1.1ZM305.3,22.4c0-.8-.2-1.4-.6-1.8s-.9-.6-1.4-.6-1.1.2-1.5.7-.6,1-.6,1.8h4.1Z"/>
        <path d="M312.9,28.5h-2.7v-10.4h2.5v1.5c.4-.7.8-1.2,1.2-1.4.3-.2.7-.3,1.2-.3s1.2.2,1.8.5l-.8,2.4c-.5-.3-.9-.4-1.3-.4s-.7.1-1,.3c-.3.2-.5.6-.6,1.1-.2.6-.2,1.7-.2,3.5v3.2Z"/>
        <path d="M327.5,28.5h-2.7v-5.3c0-1.1,0-1.8-.2-2.2s-.3-.6-.6-.8-.6-.3-1-.3-.9.1-1.3.4c-.4.3-.6.6-.8,1-.1.4-.2,1.2-.2,2.4v4.7h-2.7v-10.4h2.5v1.5c.9-1.2,2-1.8,3.4-1.8s1.2.1,1.7.3c.5.2.9.5,1.1.8.3.3.4.7.5,1.2.1.4.2,1,.2,1.8v6.4Z"/>
      </g>
      <g class="st4">
        <path d="M348.1,28.5h-3.1l-1.2-3.3h-5.7l-1.2,3.3h-3.1l5.6-14.3h3.1l5.7,14.3ZM342.7,22.8l-2-5.3-1.9,5.3h3.9Z"/>
        <path d="M356.4,28.5v-1.6c-.4.6-.9,1-1.5,1.3s-1.3.5-1.9.5-1.3-.2-1.9-.5c-.6-.3-1-.7-1.2-1.3-.2-.6-.4-1.3-.4-2.3v-6.6h2.7v4.8c0,1.5,0,2.4.2,2.7.1.3.3.6.6.8.3.2.6.3,1,.3s.9-.1,1.3-.4.6-.6.8-1,.2-1.3.2-2.8v-4.4h2.7v10.4h-2.5Z"/>
        <path d="M360.8,25.5l2.8-.4c.1.5.4.9.7,1.2.4.3.9.4,1.5.4s1.2-.1,1.6-.4c.2-.2.4-.4.4-.7s0-.4-.2-.5c-.1-.1-.4-.3-.9-.4-2.2-.5-3.6-.9-4.2-1.3-.8-.6-1.2-1.3-1.2-2.3s.4-1.7,1.1-2.3c.7-.6,1.8-.9,3.3-.9s2.5.2,3.2.7c.7.5,1.2,1.1,1.4,2.1l-2.6.5c-.1-.4-.3-.7-.6-.9-.3-.2-.8-.3-1.3-.3s-1.2.1-1.6.3c-.2.1-.3.3-.3.6s0,.4.3.5c.2.2,1.1.4,2.6.8,1.5.3,2.5.7,3.1,1.2.6.5.9,1.2.9,2s-.4,1.8-1.2,2.5c-.8.7-2,1-3.5,1s-2.5-.3-3.4-.9c-.8-.6-1.4-1.4-1.6-2.3Z"/>
        <path d="M377.7,18.1v2.2h-1.9v4.2c0,.8,0,1.3,0,1.5,0,.1.1.3.2.3s.3.1.5.1.6,0,1.1-.3l.2,2.1c-.6.3-1.4.4-2.2.4s-.9,0-1.3-.2c-.4-.2-.7-.4-.9-.6s-.3-.6-.4-1.1c0-.3,0-1,0-1.9v-4.5h-1.3v-2.2h1.3v-2.1l2.8-1.6v3.7h1.9Z"/>
        <path d="M382.2,28.5h-2.7v-10.4h2.5v1.5c.4-.7.8-1.2,1.2-1.4.3-.2.7-.3,1.2-.3s1.2.2,1.8.5l-.8,2.4c-.5-.3-.9-.4-1.3-.4s-.7.1-1,.3c-.3.2-.5.6-.6,1.1-.2.6-.2,1.7-.2,3.5v3.2Z"/>
        <path d="M389.4,21.3l-2.5-.4c.3-1,.8-1.7,1.4-2.2s1.7-.7,3-.7,2.1.1,2.7.4c.6.3,1,.7,1.3,1.1s.4,1.3.4,2.5v3.2c0,.9,0,1.6.1,2s.3.9.5,1.4h-2.7c0-.2-.2-.5-.3-.8,0-.2,0-.3,0-.3-.5.5-1,.8-1.5,1-.5.2-1.1.3-1.7.3-1.1,0-1.9-.3-2.5-.9s-.9-1.3-.9-2.2.1-1.1.4-1.6c.3-.5.7-.8,1.2-1.1.5-.2,1.2-.5,2.2-.6,1.3-.2,2.2-.5,2.7-.7v-.3c0-.5-.1-.9-.4-1.1-.3-.2-.8-.3-1.5-.3s-.9,0-1.1.3-.5.5-.7,1ZM393.1,23.5c-.4.1-.9.3-1.7.4s-1.3.3-1.5.5c-.4.3-.5.6-.5,1s.1.7.4,1c.3.3.7.4,1.1.4s1-.2,1.4-.5c.3-.2.5-.5.7-.9,0-.2.1-.7.1-1.3v-.5Z"/>
        <path d="M398.5,28.5v-14.3h2.7v14.3h-2.7Z"/>
        <path d="M404,16.7v-2.5h2.7v2.5h-2.7ZM404,28.5v-10.4h2.7v10.4h-2.7Z"/>
        <path d="M411.6,21.3l-2.5-.4c.3-1,.8-1.7,1.4-2.2s1.7-.7,3-.7,2.1.1,2.7.4c.6.3,1,.7,1.3,1.1s.4,1.3.4,2.5v3.2c0,.9,0,1.6.1,2s.3.9.5,1.4h-2.7c0-.2-.2-.5-.3-.8,0-.2,0-.3,0-.3-.5.5-1,.8-1.5,1-.5.2-1.1.3-1.7.3-1.1,0-1.9-.3-2.5-.9s-.9-1.3-.9-2.2.1-1.1.4-1.6c.3-.5.7-.8,1.2-1.1.5-.2,1.2-.5,2.2-.6,1.3-.2,2.2-.5,2.7-.7v-.3c0-.5-.1-.9-.4-1.1-.3-.2-.8-.3-1.5-.3s-.9,0-1.1.3-.5.5-.7,1ZM415.3,23.5c-.4.1-.9.3-1.7.4s-1.3.3-1.5.5c-.4.3-.5.6-.5,1s.1.7.4,1c.3.3.7.4,1.1.4s1-.2,1.4-.5c.3-.2.5-.5.7-.9,0-.2.1-.7.1-1.3v-.5Z"/>
      </g>
    </g>
    <g class="st4">
      <g class="st4">
        <path d="M113.5,48.5v-13.2h4.5c1,0,1.8,0,2.3.2.8.2,1.4.5,1.9.9.7.6,1.2,1.3,1.6,2.3.3.9.5,2,.5,3.1s-.1,1.9-.4,2.7c-.2.8-.5,1.4-.9,1.9-.4.5-.8.9-1.2,1.2-.4.3-1,.5-1.6.7-.6.1-1.3.2-2.1.2h-4.8ZM115.3,46.9h2.8c.9,0,1.5,0,2-.2s.9-.4,1.2-.7c.4-.4.7-1,1-1.7.2-.7.3-1.5.3-2.5s-.2-2.4-.7-3.2c-.5-.7-1-1.2-1.6-1.5-.5-.2-1.2-.3-2.3-.3h-2.8v10.1Z"/>
        <path d="M133.1,45.4l1.7.2c-.3,1-.8,1.7-1.5,2.3s-1.6.8-2.7.8-2.5-.4-3.3-1.3c-.8-.9-1.2-2.1-1.2-3.6s.4-2.9,1.2-3.7c.8-.9,1.9-1.3,3.2-1.3s2.3.4,3.1,1.3,1.2,2.1,1.2,3.7,0,.2,0,.4h-7.1c0,1,.4,1.9.9,2.4.5.6,1.2.8,2,.8s1.1-.2,1.5-.5c.4-.3.8-.8,1-1.5ZM127.8,42.8h5.3c0-.8-.3-1.4-.6-1.8-.5-.6-1.2-.9-2-.9s-1.4.2-1.9.7c-.5.5-.8,1.2-.8,2Z"/>
        <path d="M136.8,52.2v-13.2h1.5v1.2c.3-.5.7-.8,1.2-1.1.4-.2,1-.4,1.6-.4s1.5.2,2.2.6c.6.4,1.1,1,1.4,1.8.3.8.5,1.6.5,2.5s-.2,1.9-.5,2.6c-.4.8-.9,1.4-1.5,1.8-.7.4-1.4.6-2.1.6s-1-.1-1.5-.3-.8-.5-1.1-.9v4.6h-1.6ZM138.3,43.8c0,1.2.2,2.1.7,2.7s1.1.9,1.8.9,1.3-.3,1.8-.9c.5-.6.8-1.5.8-2.8s-.2-2.1-.8-2.7c-.5-.6-1.1-.9-1.8-.9s-1.3.3-1.8,1c-.5.6-.8,1.6-.8,2.8Z"/>
        <path d="M153.3,47.3c-.6.5-1.2.9-1.7,1.1-.6.2-1.1.3-1.8.3-1,0-1.9-.3-2.4-.8-.6-.5-.8-1.2-.8-2s.1-.9.3-1.3c.2-.4.5-.7.8-.9.3-.2.7-.4,1.2-.5.3,0,.8-.2,1.4-.2,1.3-.2,2.3-.3,2.9-.6,0-.2,0-.4,0-.4,0-.7-.2-1.1-.5-1.4-.4-.4-1-.5-1.8-.5s-1.3.1-1.7.4-.6.7-.8,1.4l-1.6-.2c.1-.7.4-1.2.7-1.6.3-.4.8-.7,1.4-1s1.3-.3,2.2-.3,1.5,0,2,.3c.5.2.9.4,1.1.7.2.3.4.7.5,1.1,0,.3,0,.8,0,1.5v2.2c0,1.5,0,2.5.1,2.9,0,.4.2.8.4,1.1h-1.7c-.2-.3-.3-.7-.3-1.2ZM153.2,43.7c-.6.2-1.5.4-2.6.6-.7,0-1.1.2-1.4.3-.3.1-.5.3-.6.5-.1.2-.2.5-.2.8,0,.4.2.8.5,1.1s.8.4,1.4.4,1.2-.1,1.7-.4.8-.6,1.1-1.1c.2-.4.3-.9.3-1.6v-.6Z"/>
        <path d="M157.3,48.5v-9.5h1.5v1.4c.4-.7.7-1.1,1-1.3s.7-.3,1-.3c.5,0,1.1.2,1.7.5l-.6,1.5c-.4-.2-.8-.4-1.2-.4s-.7.1-1,.3c-.3.2-.5.5-.6.9-.2.6-.3,1.2-.3,1.9v5h-1.6Z"/>
        <path d="M167,47.1l.2,1.4c-.5,0-.9.1-1.2.1-.6,0-1,0-1.4-.3-.3-.2-.6-.4-.7-.7s-.2-.9-.2-1.9v-5.5h-1.2v-1.3h1.2v-2.4l1.6-1v3.3h1.6v1.3h-1.6v5.6c0,.5,0,.8,0,.9,0,.1.1.2.3.3.1,0,.3.1.6.1s.4,0,.7,0Z"/>
        <path d="M168.5,48.5v-9.5h1.4v1.3c.3-.5.7-.8,1.2-1.1.5-.3,1.1-.4,1.7-.4s1.3.1,1.7.4c.5.3.8.7,1,1.2.8-1.1,1.7-1.7,2.9-1.7s1.7.3,2.2.8c.5.5.8,1.3.8,2.4v6.5h-1.6v-6c0-.6,0-1.1-.2-1.4-.1-.3-.3-.5-.6-.7-.3-.2-.6-.3-1-.3-.7,0-1.2.2-1.7.7-.4.4-.7,1.2-.7,2.1v5.5h-1.6v-6.2c0-.7-.1-1.3-.4-1.6-.3-.4-.7-.5-1.3-.5s-.9.1-1.3.4-.7.6-.8,1.1c-.2.5-.3,1.1-.3,2v5h-1.6Z"/>
        <path d="M190.4,45.4l1.7.2c-.3,1-.8,1.7-1.5,2.3s-1.6.8-2.7.8-2.5-.4-3.3-1.3c-.8-.9-1.2-2.1-1.2-3.6s.4-2.9,1.2-3.7c.8-.9,1.9-1.3,3.2-1.3s2.3.4,3.1,1.3,1.2,2.1,1.2,3.7,0,.2,0,.4h-7.1c0,1,.4,1.9.9,2.4.5.6,1.2.8,2,.8s1.1-.2,1.5-.5c.4-.3.8-.8,1-1.5ZM185.1,42.8h5.3c0-.8-.3-1.4-.6-1.8-.5-.6-1.2-.9-2-.9s-1.4.2-1.9.7c-.5.5-.8,1.2-.8,2Z"/>
        <path d="M194.1,48.5v-9.5h1.5v1.4c.7-1,1.7-1.6,3-1.6s1.1.1,1.6.3c.5.2.8.5,1.1.8.2.3.4.7.5,1.2,0,.3,0,.8,0,1.6v5.9h-1.6v-5.8c0-.7,0-1.2-.2-1.5-.1-.3-.3-.6-.7-.8s-.7-.3-1.1-.3c-.7,0-1.3.2-1.8.7-.5.4-.8,1.3-.8,2.5v5.2h-1.6Z"/>
        <path d="M207.9,47.1l.2,1.4c-.5,0-.9.1-1.2.1-.6,0-1,0-1.4-.3-.3-.2-.6-.4-.7-.7s-.2-.9-.2-1.9v-5.5h-1.2v-1.3h1.2v-2.4l1.6-1v3.3h1.6v1.3h-1.6v5.6c0,.5,0,.8,0,.9,0,.1.1.2.3.3.1,0,.3.1.6.1s.4,0,.7,0Z"/>
        <path d="M214,43.7c0-1.8.5-3.1,1.5-3.9.8-.7,1.8-1.1,3-1.1s2.4.4,3.2,1.3c.8.9,1.2,2,1.2,3.6s-.2,2.2-.6,2.9c-.4.7-.9,1.2-1.6,1.6-.7.4-1.5.6-2.3.6-1.3,0-2.4-.4-3.2-1.3s-1.2-2.1-1.2-3.7ZM215.6,43.7c0,1.2.3,2.1.8,2.7.5.6,1.2.9,2,.9s1.5-.3,2-.9c.5-.6.8-1.5.8-2.8s-.3-2.1-.8-2.7c-.5-.6-1.2-.9-2-.9s-1.5.3-2,.9c-.5.6-.8,1.5-.8,2.7Z"/>
        <path d="M225.2,48.5v-8.3h-1.4v-1.3h1.4v-1c0-.6,0-1.1.2-1.4.2-.4.4-.8.8-1,.4-.3.9-.4,1.6-.4s1,0,1.5.2l-.2,1.4c-.3,0-.7,0-1,0-.5,0-.8.1-1,.3s-.3.6-.3,1.2v.9h1.9v1.3h-1.9v8.3h-1.6Z"/>
      </g>
    </g>
    <g class="st4">
      <g class="st4">
        <path d="M234.9,48.5v-13.2h9.8v2.2h-7.1v2.9h6.6v2.2h-6.6v3.6h7.4v2.2h-10Z"/>
        <path d="M255.9,48.5h-2.5v-4.9c0-1,0-1.7-.2-2-.1-.3-.3-.5-.5-.7-.2-.2-.5-.3-.9-.3s-.8.1-1.2.4c-.3.2-.6.6-.7,1s-.2,1.1-.2,2.2v4.3h-2.5v-9.5h2.3v1.4c.8-1.1,1.9-1.6,3.1-1.6s1.1.1,1.5.3c.5.2.8.5,1,.8.2.3.4.7.5,1.1s.1,1,.1,1.7v5.9Z"/>
        <path d="M264,45.5l2.5.4c-.3.9-.8,1.6-1.5,2.1-.7.5-1.6.7-2.6.7-1.7,0-2.9-.5-3.7-1.6-.6-.9-.9-2-.9-3.3s.4-2.8,1.2-3.7,1.9-1.3,3.1-1.3,2.5.5,3.4,1.4c.8.9,1.2,2.4,1.2,4.3h-6.3c0,.7.2,1.3.6,1.7.4.4.9.6,1.5.6s.7-.1,1-.3c.3-.2.5-.6.6-1ZM264.1,42.9c0-.7-.2-1.3-.6-1.7-.4-.4-.8-.6-1.3-.6s-1,.2-1.4.6-.5.9-.5,1.6h3.8Z"/>
        <path d="M271.1,48.5h-2.5v-9.5h2.3v1.4c.4-.6.8-1.1,1.1-1.3.3-.2.7-.3,1.1-.3s1.1.2,1.7.5l-.8,2.2c-.4-.3-.8-.4-1.2-.4s-.7,0-.9.3c-.2.2-.4.5-.6,1.1-.1.5-.2,1.6-.2,3.2v2.9Z"/>
        <path d="M275.6,49.1l2.9.4c0,.3.2.6.3.7.2.2.6.3,1.1.3s1.2,0,1.5-.3c.2-.1.4-.3.5-.6,0-.2.1-.6.1-1.2v-1.4c-.8,1-1.7,1.5-2.9,1.5s-2.3-.5-3-1.6c-.6-.9-.9-1.9-.9-3.2s.4-2.8,1.2-3.7,1.7-1.3,2.9-1.3,2.2.5,2.9,1.6v-1.3h2.4v8.6c0,1.1,0,2-.3,2.5-.2.6-.4,1-.8,1.3-.3.3-.8.6-1.3.7-.6.2-1.3.3-2.1.3-1.6,0-2.8-.3-3.4-.8s-1-1.3-1-2.1,0-.2,0-.3ZM277.8,43.5c0,1,.2,1.8.6,2.2.4.5.9.7,1.5.7s1.1-.2,1.6-.7c.4-.5.6-1.2.6-2.1s-.2-1.7-.6-2.2-.9-.7-1.5-.7-1.1.2-1.5.7c-.4.5-.6,1.2-.6,2.2Z"/>
        <path d="M285.9,39h2.7l2.3,6.8,2.2-6.8h2.6l-3.4,9.2-.6,1.7c-.2.6-.4,1-.6,1.3-.2.3-.4.5-.7.7s-.6.3-1,.4c-.4.1-.8.2-1.3.2s-1,0-1.4-.2l-.2-2c.4,0,.8.1,1.1.1.6,0,1-.2,1.3-.5.3-.3.5-.8.6-1.3l-3.6-9.6Z"/>
        <path d="M304.3,41.9l-2.3-.4c.3-.9.7-1.6,1.3-2s1.6-.7,2.8-.7,2,.1,2.5.4.9.6,1.2,1,.3,1.2.3,2.3v2.9c0,.8,0,1.5,0,1.9s.2.8.5,1.3h-2.5c0-.2-.1-.4-.2-.7,0-.1,0-.2,0-.3-.4.4-.9.7-1.4.9-.5.2-1,.3-1.6.3-1,0-1.8-.3-2.3-.8-.6-.5-.8-1.2-.8-2s.1-1,.4-1.4c.3-.4.6-.7,1.1-1,.5-.2,1.1-.4,2-.6,1.2-.2,2-.4,2.5-.6v-.3c0-.5-.1-.8-.4-1-.2-.2-.7-.3-1.4-.3s-.8,0-1.1.3c-.3.2-.5.5-.6.9ZM307.7,43.9c-.3.1-.8.2-1.5.4-.7.1-1.2.3-1.4.4-.3.2-.5.5-.5.9s.1.7.4.9c.3.3.6.4,1,.4s.9-.1,1.3-.4c.3-.2.5-.5.6-.8,0-.2,0-.6,0-1.2v-.5Z"/>
        <path d="M321.3,48.5h-2.5v-4.9c0-1,0-1.7-.2-2-.1-.3-.3-.5-.5-.7-.2-.2-.5-.3-.9-.3s-.8.1-1.2.4c-.3.2-.6.6-.7,1s-.2,1.1-.2,2.2v4.3h-2.5v-9.5h2.3v1.4c.8-1.1,1.9-1.6,3.1-1.6s1.1.1,1.5.3c.5.2.8.5,1,.8s.4.7.5,1.1.1,1,.1,1.7v5.9Z"/>
        <path d="M332.6,48.5h-2.3v-1.4c-.4.5-.8,1-1.4,1.2-.5.3-1.1.4-1.6.4-1.1,0-2-.4-2.8-1.3-.8-.9-1.2-2.1-1.2-3.7s.4-2.8,1.1-3.7c.8-.8,1.7-1.3,2.9-1.3s2,.4,2.8,1.3v-4.7h2.5v13.2ZM325.9,43.5c0,1,.1,1.8.4,2.2.4.7,1,1,1.7,1s1.1-.2,1.5-.7.6-1.2.6-2.2-.2-1.9-.6-2.4c-.4-.5-.9-.7-1.5-.7s-1.1.2-1.5.7c-.4.5-.6,1.2-.6,2.1Z"/>
        <path d="M340.3,48.5v-13.2h9.8v2.2h-7.1v2.9h6.6v2.2h-6.6v3.6h7.4v2.2h-10Z"/>
        <path d="M360.8,41.8l-2.5.4c0-.5-.3-.9-.6-1.1-.3-.3-.7-.4-1.2-.4s-1.1.2-1.5.7c-.4.4-.6,1.2-.6,2.2s.2,1.9.6,2.4c.4.5.9.7,1.5.7s.9-.1,1.2-.4c.3-.3.5-.7.6-1.4l2.5.4c-.3,1.1-.8,2-1.5,2.6-.7.6-1.7.9-2.9.9s-2.5-.4-3.3-1.3c-.8-.9-1.2-2.1-1.2-3.7s.4-2.8,1.2-3.7c.8-.9,2-1.3,3.4-1.3s2.1.2,2.8.8,1.2,1.3,1.5,2.3Z"/>
        <path d="M362.2,43.6c0-.8.2-1.7.6-2.4.4-.8,1-1.4,1.8-1.8.8-.4,1.6-.6,2.5-.6,1.4,0,2.6.5,3.5,1.4.9.9,1.4,2.1,1.4,3.6s-.5,2.6-1.4,3.6c-.9.9-2.1,1.4-3.5,1.4s-1.7-.2-2.5-.6c-.8-.4-1.4-1-1.8-1.7s-.6-1.7-.6-2.8ZM364.7,43.7c0,.9.2,1.7.7,2.2s1,.8,1.7.8,1.2-.3,1.7-.8.7-1.2.7-2.2-.2-1.7-.7-2.2c-.4-.5-1-.8-1.7-.8s-1.2.3-1.7.8c-.4.5-.7,1.2-.7,2.2Z"/>
        <path d="M382.7,48.5h-2.5v-4.9c0-1,0-1.7-.2-2-.1-.3-.3-.5-.5-.7-.2-.2-.5-.3-.9-.3s-.8.1-1.2.4-.6.6-.7,1-.2,1.1-.2,2.2v4.3h-2.5v-9.5h2.3v1.4c.8-1.1,1.9-1.6,3.1-1.6s1.1.1,1.5.3c.5.2.8.5,1,.8.2.3.4.7.5,1.1s.1,1,.1,1.7v5.9Z"/>
        <path d="M384.6,43.6c0-.8.2-1.7.6-2.4.4-.8,1-1.4,1.8-1.8.8-.4,1.6-.6,2.5-.6,1.4,0,2.6.5,3.5,1.4.9.9,1.4,2.1,1.4,3.6s-.5,2.6-1.4,3.6c-.9.9-2.1,1.4-3.5,1.4s-1.7-.2-2.5-.6c-.8-.4-1.4-1-1.8-1.7s-.6-1.7-.6-2.8ZM387.2,43.7c0,.9.2,1.7.7,2.2s1,.8,1.7.8,1.2-.3,1.7-.8.7-1.2.7-2.2-.2-1.7-.7-2.2c-.4-.5-1-.8-1.7-.8s-1.2.3-1.7.8c-.4.5-.7,1.2-.7,2.2Z"/>
        <path d="M396.3,39h2.3v1.3c.8-1,1.8-1.5,3-1.5s1.1.1,1.6.4c.4.3.8.6,1.1,1.1.4-.5.9-.9,1.4-1.1.5-.3,1-.4,1.6-.4s1.3.1,1.8.4.8.7,1.1,1.3c.2.4.3,1.1.3,2v6.1h-2.5v-5.5c0-.9,0-1.6-.3-1.8-.2-.4-.6-.5-1.1-.5s-.7.1-1,.3c-.3.2-.5.5-.7.9-.1.4-.2,1.1-.2,2v4.6h-2.5v-5.2c0-.9,0-1.5-.1-1.8s-.2-.5-.4-.6-.4-.2-.8-.2-.7.1-1.1.3-.5.5-.7.9-.2,1.1-.2,2v4.6h-2.5v-9.5Z"/>
        <path d="M412.8,37.7v-2.3h2.5v2.3h-2.5ZM412.8,48.5v-9.5h2.5v9.5h-2.5Z"/>
        <path d="M426.3,41.8l-2.5.4c0-.5-.3-.9-.6-1.1-.3-.3-.7-.4-1.2-.4s-1.1.2-1.5.7-.6,1.2-.6,2.2.2,1.9.6,2.4c.4.5.9.7,1.5.7s.9-.1,1.2-.4c.3-.3.5-.7.6-1.4l2.5.4c-.3,1.1-.8,2-1.5,2.6-.7.6-1.7.9-2.9.9s-2.5-.4-3.3-1.3c-.8-.9-1.2-2.1-1.2-3.7s.4-2.8,1.2-3.7c.8-.9,2-1.3,3.4-1.3s2.1.2,2.8.8c.7.5,1.2,1.3,1.5,2.3Z"/>
        <path d="M433.3,35.3h4.9c1.1,0,1.9,0,2.5.3.8.2,1.4.6,2,1.2.6.6,1,1.3,1.3,2.1.3.8.4,1.9.4,3.1s-.1,2-.4,2.8c-.3,1-.8,1.7-1.4,2.3-.5.4-1.1.8-1.9,1.1-.6.2-1.4.3-2.4.3h-5v-13.2ZM435.9,37.6v8.7h2c.7,0,1.3,0,1.6-.1.4-.1.8-.3,1.1-.5.3-.3.5-.7.7-1.3s.3-1.4.3-2.4,0-1.8-.3-2.3c-.2-.5-.4-1-.8-1.3s-.7-.5-1.2-.6c-.4,0-1.1-.1-2.2-.1h-1.2Z"/>
        <path d="M446.6,37.7v-2.3h2.5v2.3h-2.5ZM446.6,48.5v-9.5h2.5v9.5h-2.5Z"/>
        <path d="M454.3,48.5l-3.8-9.5h2.7l1.8,4.9.5,1.6c.1-.4.2-.7.3-.8,0-.3.2-.5.3-.8l1.8-4.9h2.6l-3.8,9.5h-2.3Z"/>
        <path d="M467.4,45.5l2.5.4c-.3.9-.8,1.6-1.5,2.1-.7.5-1.6.7-2.6.7-1.7,0-2.9-.5-3.7-1.6-.6-.9-.9-2-.9-3.3s.4-2.8,1.2-3.7c.8-.9,1.9-1.3,3.1-1.3s2.5.5,3.4,1.4c.8.9,1.2,2.4,1.2,4.3h-6.3c0,.7.2,1.3.6,1.7.4.4.9.6,1.5.6s.7-.1,1-.3c.3-.2.5-.6.6-1ZM467.6,42.9c0-.7-.2-1.3-.6-1.7-.4-.4-.8-.6-1.3-.6s-1,.2-1.4.6-.5.9-.5,1.6h3.8Z"/>
        <path d="M474.6,48.5h-2.5v-9.5h2.3v1.4c.4-.6.8-1.1,1.1-1.3.3-.2.7-.3,1.1-.3s1.1.2,1.7.5l-.8,2.2c-.4-.3-.8-.4-1.2-.4s-.7,0-.9.3c-.2.2-.4.5-.6,1.1-.1.5-.2,1.6-.2,3.2v2.9Z"/>
        <path d="M478.4,45.8l2.5-.4c.1.5.3.9.7,1.1.3.3.8.4,1.4.4s1.1-.1,1.5-.4c.2-.2.3-.4.3-.7s0-.4-.2-.5c-.1-.1-.4-.2-.8-.3-2-.4-3.3-.9-3.9-1.2-.8-.5-1.1-1.2-1.1-2.1s.3-1.5,1-2.1c.7-.6,1.7-.8,3-.8s2.3.2,2.9.6c.6.4,1.1,1.1,1.3,1.9l-2.4.4c-.1-.4-.3-.7-.6-.9-.3-.2-.7-.3-1.2-.3s-1.1,0-1.4.3c-.2.1-.3.3-.3.5s0,.3.3.5c.2.2,1,.4,2.4.7s2.3.7,2.8,1.1c.5.4.8,1.1.8,1.9s-.4,1.6-1.1,2.3c-.7.6-1.8.9-3.2.9s-2.3-.3-3.1-.8c-.8-.5-1.3-1.2-1.5-2.1Z"/>
        <path d="M489.5,37.7v-2.3h2.5v2.3h-2.5ZM489.5,48.5v-9.5h2.5v9.5h-2.5Z"/>
        <path d="M493.5,39h1.4v-.7c0-.8,0-1.4.3-1.8.2-.4.5-.7.9-1,.5-.2,1-.4,1.7-.4s1.4.1,2.1.3l-.3,1.8c-.4,0-.8-.1-1.2-.1s-.6,0-.8.3c-.2.2-.2.5-.2,1v.7h1.9v2h-1.9v7.6h-2.5v-7.6h-1.4v-2Z"/>
        <path d="M500.8,37.7v-2.3h2.5v2.3h-2.5ZM500.8,48.5v-9.5h2.5v9.5h-2.5Z"/>
        <path d="M514.2,41.8l-2.5.4c0-.5-.3-.9-.6-1.1-.3-.3-.7-.4-1.2-.4s-1.1.2-1.5.7-.6,1.2-.6,2.2.2,1.9.6,2.4c.4.5.9.7,1.5.7s.9-.1,1.2-.4c.3-.3.5-.7.6-1.4l2.5.4c-.3,1.1-.8,2-1.5,2.6-.7.6-1.7.9-2.9.9s-2.5-.4-3.3-1.3c-.8-.9-1.2-2.1-1.2-3.7s.4-2.8,1.2-3.7c.8-.9,2-1.3,3.4-1.3s2.1.2,2.8.8c.7.5,1.2,1.3,1.5,2.3Z"/>
        <path d="M518,41.9l-2.3-.4c.3-.9.7-1.6,1.3-2s1.6-.7,2.8-.7,2,.1,2.5.4.9.6,1.2,1,.3,1.2.3,2.3v2.9c0,.8,0,1.5,0,1.9s.2.8.5,1.3h-2.5c0-.2-.1-.4-.2-.7,0-.1,0-.2,0-.3-.4.4-.9.7-1.4.9-.5.2-1,.3-1.6.3-1,0-1.8-.3-2.3-.8-.6-.5-.8-1.2-.8-2s.1-1,.4-1.4c.3-.4.6-.7,1.1-1,.5-.2,1.1-.4,2-.6,1.2-.2,2-.4,2.5-.6v-.3c0-.5-.1-.8-.4-1-.2-.2-.7-.3-1.4-.3s-.8,0-1.1.3c-.3.2-.5.5-.6.9ZM521.4,43.9c-.3.1-.8.2-1.5.4-.7.1-1.2.3-1.4.4-.3.2-.5.5-.5.9s.1.7.4.9c.3.3.6.4,1,.4s.9-.1,1.3-.4c.3-.2.5-.5.6-.8,0-.2,0-.6,0-1.2v-.5Z"/>
        <path d="M530.7,39v2h-1.7v3.8c0,.8,0,1.2,0,1.4,0,.1.1.2.2.3.1,0,.3.1.4.1s.6,0,1-.2l.2,2c-.6.3-1.3.4-2,.4s-.9,0-1.2-.2c-.4-.2-.6-.4-.8-.6s-.3-.6-.4-1c0-.3,0-.9,0-1.8v-4.2h-1.2v-2h1.2v-1.9l2.5-1.5v3.4h1.7Z"/>
        <path d="M532.5,37.7v-2.3h2.5v2.3h-2.5ZM532.5,48.5v-9.5h2.5v9.5h-2.5Z"/>
        <path d="M537,43.6c0-.8.2-1.7.6-2.4.4-.8,1-1.4,1.8-1.8.8-.4,1.6-.6,2.5-.6,1.4,0,2.6.5,3.5,1.4.9.9,1.4,2.1,1.4,3.6s-.5,2.6-1.4,3.6c-.9.9-2.1,1.4-3.5,1.4s-1.7-.2-2.5-.6c-.8-.4-1.4-1-1.8-1.7s-.6-1.7-.6-2.8ZM539.6,43.7c0,.9.2,1.7.7,2.2s1,.8,1.7.8,1.2-.3,1.7-.8.7-1.2.7-2.2-.2-1.7-.7-2.2c-.4-.5-1-.8-1.7-.8s-1.2.3-1.7.8c-.4.5-.7,1.2-.7,2.2Z"/>
        <path d="M557.5,48.5h-2.5v-4.9c0-1,0-1.7-.2-2-.1-.3-.3-.5-.5-.7-.2-.2-.5-.3-.9-.3s-.8.1-1.2.4c-.3.2-.6.6-.7,1s-.2,1.1-.2,2.2v4.3h-2.5v-9.5h2.3v1.4c.8-1.1,1.9-1.6,3.1-1.6s1.1.1,1.5.3c.5.2.8.5,1,.8s.4.7.5,1.1.1,1,.1,1.7v5.9Z"/>
      </g>
    </g>
  </g>
</svg>